<svg width="173" height="52" viewBox="0 0 173 52" fill="none" xmlns="http://www.w3.org/2000/svg">
<path d="M165.93 51.09H6.688C3.37924 51.09 0.686035 48.3892 0.686035 45.083V6.32091C0.686035 3.01342 3.37924 0.322754 6.688 0.322754H165.93C169.237 0.322754 172.026 3.01342 172.026 6.32091V45.083C172.026 48.3892 169.237 51.09 165.93 51.09Z" fill="white"/>
<path d="M165.93 50.59H6.688C3.65607 50.59 1.18604 48.1138 1.18604 45.083V6.32091C1.18604 3.28991 3.65504 0.822754 6.688 0.822754H165.93C168.972 0.822754 171.526 3.29999 171.526 6.32091V45.083C171.526 48.1037 168.971 50.59 165.93 50.59Z" stroke="#31B27C" stroke-opacity="0.25"/>
<path d="M38.924 25.4325C38.8872 21.3419 42.2734 19.3519 42.4283 19.2592C40.5105 16.4632 37.5381 16.0812 36.4936 16.0507C33.9971 15.788 31.5755 17.5445 30.3038 17.5445C29.0067 17.5445 27.0483 16.0761 24.9377 16.1192C22.2216 16.1611 19.6807 17.7336 18.2871 20.1756C15.4112 25.1546 17.5561 32.4714 20.3115 36.496C21.6898 38.467 23.3004 40.6678 25.4085 40.5903C27.4709 40.5053 28.2413 39.2755 30.7302 39.2755C33.1962 39.2755 33.9197 40.5903 36.0697 40.5408C38.2831 40.5053 39.6767 38.5609 41.0068 36.5721C42.5996 34.313 43.2393 32.0881 43.2647 31.9739C43.2126 31.9561 38.9659 30.3354 38.924 25.4325Z" fill="#555555"/>
<path d="M34.8626 13.4031C35.9719 12.0158 36.7309 10.1286 36.5202 8.21338C34.9147 8.28445 32.9068 9.32391 31.7506 10.6807C30.7276 11.8762 29.8138 13.8359 30.0499 15.6787C31.8534 15.8132 33.7051 14.7687 34.8626 13.4031Z" fill="#555555"/>
<path d="M68.7713 40.3073H65.889L64.3102 35.346H58.8222L57.3182 40.3073H54.5121L59.9493 23.417H63.3075L68.7713 40.3073ZM63.8342 33.2646L62.4064 28.8542C62.2554 28.4036 61.9723 27.3426 61.5548 25.6723H61.504C61.3377 26.3907 61.0699 27.4517 60.7019 28.8542L59.2994 33.2646H63.8342Z" fill="#555555"/>
<path d="M82.7539 34.0677C82.7539 36.139 82.1942 37.7763 81.0748 38.9782C80.0721 40.0481 78.8271 40.5824 77.3408 40.5824C75.7366 40.5824 74.5842 40.0062 73.8823 38.8538H73.8316V45.2695H71.1257V32.1373C71.1257 30.8351 71.0914 29.4987 71.0254 28.128H73.4051L73.5561 30.0584H73.6069C74.5093 28.6039 75.8787 27.8779 77.7165 27.8779C79.1532 27.8779 80.3526 28.4453 81.3121 29.5812C82.2742 30.7184 82.7539 32.2135 82.7539 34.0677ZM79.9972 34.1667C79.9972 32.9813 79.7307 32.004 79.1951 31.2349C78.61 30.4328 77.8244 30.0317 76.8395 30.0317C76.1719 30.0317 75.5653 30.2551 75.0233 30.6955C74.4801 31.1397 74.1247 31.7197 73.9585 32.4381C73.8747 32.7732 73.8328 33.0473 73.8328 33.2631V35.2938C73.8328 36.1797 74.1044 36.9272 74.6476 37.5377C75.1908 38.1482 75.8965 38.4528 76.7646 38.4528C77.7838 38.4528 78.577 38.0593 79.1443 37.275C79.7129 36.4893 79.9972 35.4537 79.9972 34.1667Z" fill="#555555"/>
<path d="M96.7619 34.0677C96.7619 36.139 96.2022 37.7763 95.0815 38.9782C94.0801 40.0481 92.8351 40.5824 91.3488 40.5824C89.7446 40.5824 88.5922 40.0062 87.8916 38.8538H87.8408V45.2695H85.1349V32.1373C85.1349 30.8351 85.1007 29.4987 85.0347 28.128H87.4144L87.5654 30.0584H87.6162C88.5173 28.6039 89.8868 27.8779 91.7258 27.8779C93.1612 27.8779 94.3606 28.4453 95.3227 29.5812C96.2809 30.7184 96.7619 32.2135 96.7619 34.0677ZM94.0052 34.1667C94.0052 32.9813 93.7374 32.004 93.2019 31.2349C92.6168 30.4328 91.8337 30.0317 90.8475 30.0317C90.1787 30.0317 89.5733 30.2551 89.0301 30.6955C88.4868 31.1397 88.1327 31.7197 87.9665 32.4381C87.884 32.7732 87.8408 33.0473 87.8408 33.2631V35.2938C87.8408 36.1797 88.1124 36.9272 88.6531 37.5377C89.1963 38.1469 89.902 38.4528 90.7726 38.4528C91.7918 38.4528 92.585 38.0593 93.1524 37.275C93.721 36.4893 94.0052 35.4537 94.0052 34.1667Z" fill="#555555"/>
<path d="M112.424 35.5706C112.424 37.0073 111.925 38.1762 110.923 39.0786C109.823 40.0648 108.291 40.5572 106.323 40.5572C104.505 40.5572 103.048 40.2069 101.945 39.5051L102.572 37.2497C103.76 37.9681 105.064 38.3285 106.484 38.3285C107.503 38.3285 108.296 38.0976 108.866 37.6381C109.433 37.1787 109.716 36.5618 109.716 35.7927C109.716 35.1074 109.483 34.5299 109.015 34.0616C108.549 33.5932 107.771 33.1579 106.684 32.7556C103.727 31.6526 102.25 30.037 102.25 27.9124C102.25 26.5239 102.768 25.3854 103.805 24.4995C104.838 23.6124 106.216 23.1694 107.94 23.1694C109.477 23.1694 110.753 23.4372 111.772 23.9716L111.096 26.1774C110.144 25.6596 109.068 25.4007 107.863 25.4007C106.912 25.4007 106.168 25.6355 105.635 26.1025C105.184 26.5201 104.958 27.029 104.958 27.6319C104.958 28.2995 105.216 28.8516 105.734 29.2856C106.184 29.6867 107.003 30.1207 108.191 30.5891C109.644 31.1742 110.711 31.8583 111.398 32.6426C112.082 33.4244 112.424 34.403 112.424 35.5706Z" fill="#555555"/>
<path d="M121.37 30.1591H118.388V36.0722C118.388 37.5762 118.913 38.3275 119.966 38.3275C120.45 38.3275 120.851 38.2856 121.168 38.2019L121.243 40.2567C120.71 40.4559 120.008 40.5562 119.139 40.5562C118.07 40.5562 117.235 40.23 116.632 39.5789C116.032 38.9266 115.73 37.8325 115.73 36.2956V30.1565H113.953V28.1258H115.73V25.8959L118.388 25.0938V28.1258H121.37V30.1591Z" fill="#555555"/>
<path d="M134.827 34.1174C134.827 35.9895 134.292 37.5264 133.223 38.7284C132.102 39.9658 130.615 40.5826 128.76 40.5826C126.973 40.5826 125.551 39.9899 124.49 38.8045C123.429 37.6191 122.898 36.1227 122.898 34.3192C122.898 32.432 123.444 30.8861 124.539 29.6842C125.632 28.481 127.107 27.8794 128.961 27.8794C130.748 27.8794 132.186 28.4721 133.271 29.6588C134.309 30.8099 134.827 32.2961 134.827 34.1174ZM132.02 34.205C132.02 33.0818 131.78 32.1185 131.294 31.3151C130.726 30.3429 129.915 29.858 128.865 29.858C127.777 29.858 126.951 30.3441 126.383 31.3151C125.897 32.1197 125.657 33.0983 125.657 34.2558C125.657 35.379 125.897 36.3423 126.383 37.1444C126.968 38.1166 127.786 38.6014 128.84 38.6014C129.874 38.6014 130.685 38.1065 131.27 37.119C131.768 36.3004 132.02 35.327 132.02 34.205Z" fill="#555555"/>
<path d="M143.623 30.5077C143.355 30.4582 143.069 30.4328 142.77 30.4328C141.818 30.4328 141.082 30.792 140.564 31.5116C140.113 32.1462 139.887 32.9483 139.887 33.9167V40.307H137.183L137.208 31.9634C137.208 30.5597 137.174 29.2816 137.107 28.1292H139.464L139.562 30.4594H139.637C139.923 29.6586 140.374 29.0138 140.99 28.5303C141.593 28.095 142.244 27.8779 142.946 27.8779C143.196 27.8779 143.422 27.8957 143.623 27.9274V30.5077Z" fill="#555555"/>
<path d="M155.724 33.6417C155.724 34.1265 155.693 34.5352 155.625 34.869H147.508C147.539 36.0722 147.932 36.9923 148.685 37.6269C149.369 38.1942 150.254 38.4785 151.341 38.4785C152.542 38.4785 153.639 38.2869 154.625 37.9023L155.049 39.7807C153.897 40.2833 152.536 40.5333 150.966 40.5333C149.078 40.5333 147.595 39.9774 146.516 38.8669C145.44 37.7564 144.901 36.2651 144.901 34.3943C144.901 32.5578 145.402 31.0284 146.406 29.8087C147.457 28.5066 148.877 27.8555 150.664 27.8555C152.419 27.8555 153.748 28.5066 154.651 29.8087C155.365 30.8431 155.724 32.1225 155.724 33.6417ZM153.144 32.9398C153.162 32.1377 152.985 31.4447 152.619 30.8596C152.15 30.107 151.431 29.7313 150.462 29.7313C149.578 29.7313 148.858 30.0981 148.308 30.8342C147.858 31.4193 147.59 32.1212 147.508 32.9385L153.144 32.9398Z" fill="#555555"/>
<path d="M62.9394 13.0261C62.9394 14.52 62.4913 15.6445 61.5966 16.3996C60.7678 17.0964 59.59 17.4454 58.0644 17.4454C57.308 17.4454 56.6607 17.4124 56.1188 17.3464V9.18433C56.8257 9.0701 57.5872 9.01172 58.4096 9.01172C59.8629 9.01172 60.9582 9.32774 61.6968 9.9598C62.5243 10.6743 62.9394 11.696 62.9394 13.0261ZM61.5369 13.0629C61.5369 12.0946 61.2805 11.3521 60.7678 10.8343C60.255 10.3177 59.5062 10.0588 58.5201 10.0588C58.1012 10.0588 57.7446 10.0867 57.4489 10.1451V16.3501C57.6126 16.3755 57.9121 16.3869 58.3475 16.3869C59.3653 16.3869 60.151 16.1039 60.7043 15.5379C61.2577 14.9718 61.5369 14.1468 61.5369 13.0629Z" fill="#555555"/>
<path d="M70.3754 14.3309C70.3754 15.2511 70.1127 16.0049 69.5873 16.5964C69.0364 17.2043 68.3067 17.5077 67.3954 17.5077C66.5171 17.5077 65.8178 17.217 65.2962 16.6332C64.7758 16.0506 64.5156 15.3158 64.5156 14.4299C64.5156 13.5034 64.7834 12.7431 65.3216 12.153C65.8597 11.5628 66.5831 11.2671 67.4944 11.2671C68.3727 11.2671 69.0783 11.5577 69.6127 12.1403C70.1203 12.7063 70.3754 13.4374 70.3754 14.3309ZM68.9958 14.374C68.9958 13.822 68.8765 13.3485 68.6392 12.9538C68.36 12.4766 67.9627 12.238 67.4462 12.238C66.9118 12.238 66.5057 12.4766 66.2265 12.9538C65.9879 13.3485 65.8698 13.8296 65.8698 14.3982C65.8698 14.9503 65.9891 15.4237 66.2265 15.8184C66.5146 16.2956 66.9156 16.5342 67.4335 16.5342C67.9411 16.5342 68.3397 16.2918 68.6265 15.8057C68.8727 15.4034 68.9958 14.9261 68.9958 14.374Z" fill="#555555"/>
<path d="M80.3462 11.3887L78.4742 17.3716H77.2558L76.4803 14.7736C76.2836 14.125 76.1237 13.4803 75.9993 12.8406H75.9752C75.8597 13.4981 75.6998 14.1415 75.4942 14.7736L74.6705 17.3716H73.4381L71.6777 11.3887H73.0446L73.7211 14.2329C73.8848 14.9056 74.0194 15.5465 74.1273 16.1532H74.1514C74.2504 15.6531 74.4141 15.016 74.6451 14.2456L75.4942 11.3899H76.578L77.3916 14.1847C77.5883 14.8662 77.7482 15.5224 77.8713 16.1545H77.9081C77.9983 15.5389 78.1341 14.8827 78.3143 14.1847L79.0403 11.3899H80.3462V11.3887Z" fill="#555555"/>
<path d="M87.2417 17.3718H85.9116V13.945C85.9116 12.889 85.5105 12.361 84.7059 12.361C84.3111 12.361 83.9926 12.5057 83.7451 12.7964C83.5001 13.087 83.3758 13.4297 83.3758 13.8219V17.3705H82.0457V13.0984C82.0457 12.573 82.0292 12.0031 81.9974 11.3863H83.1664L83.2285 12.3217H83.2654C83.4202 12.031 83.6512 11.7912 83.9545 11.5995C84.315 11.3761 84.7186 11.2632 85.1602 11.2632C85.7187 11.2632 86.1832 11.4434 86.5525 11.8051C87.012 12.2481 87.2417 12.9093 87.2417 13.7876V17.3718Z" fill="#555555"/>
<path d="M90.9096 17.3717H89.5808V8.64355H90.9096V17.3717Z" fill="#555555"/>
<path d="M98.7404 14.3309C98.7404 15.2511 98.4777 16.0049 97.9523 16.5964C97.4014 17.2043 96.6704 17.5077 95.7604 17.5077C94.8809 17.5077 94.1815 17.217 93.6612 16.6332C93.1408 16.0506 92.8806 15.3158 92.8806 14.4299C92.8806 13.5034 93.1484 12.7431 93.6865 12.153C94.2247 11.5628 94.9481 11.2671 95.8581 11.2671C96.7377 11.2671 97.4421 11.5577 97.9776 12.1403C98.4853 12.7063 98.7404 13.4374 98.7404 14.3309ZM97.3596 14.374C97.3596 13.822 97.2403 13.3485 97.0029 12.9538C96.725 12.4766 96.3264 12.238 95.8112 12.238C95.2756 12.238 94.8694 12.4766 94.5915 12.9538C94.3529 13.3485 94.2348 13.8296 94.2348 14.3982C94.2348 14.9503 94.3541 15.4237 94.5915 15.8184C94.8796 16.2956 95.2806 16.5342 95.7985 16.5342C96.3061 16.5342 96.7034 16.2918 96.9902 15.8057C97.2377 15.4034 97.3596 14.9261 97.3596 14.374Z" fill="#555555"/>
<path d="M105.178 17.3719H103.983L103.884 16.6827H103.848C103.439 17.2322 102.856 17.5077 102.1 17.5077C101.535 17.5077 101.078 17.3262 100.734 16.9657C100.422 16.6383 100.266 16.2309 100.266 15.7473C100.266 15.0163 100.571 14.4591 101.184 14.0733C101.795 13.6874 102.656 13.4983 103.764 13.5072V13.3955C103.764 12.6073 103.35 12.2139 102.521 12.2139C101.931 12.2139 101.411 12.3624 100.962 12.6568L100.691 11.7836C101.247 11.4397 101.934 11.2671 102.743 11.2671C104.307 11.2671 105.091 12.0921 105.091 13.742V15.9453C105.091 16.5431 105.121 17.019 105.178 17.3719ZM103.797 15.3158V14.3931C102.33 14.3677 101.596 14.77 101.596 15.5988C101.596 15.911 101.68 16.1446 101.851 16.3007C102.023 16.4568 102.241 16.5342 102.501 16.5342C102.793 16.5342 103.066 16.4415 103.315 16.2575C103.565 16.0722 103.718 15.8374 103.775 15.5493C103.789 15.4846 103.797 15.4059 103.797 15.3158Z" fill="#555555"/>
<path d="M112.736 17.3717H111.555L111.493 16.4109H111.456C111.079 17.142 110.437 17.5075 109.535 17.5075C108.814 17.5075 108.214 17.2245 107.738 16.6584C107.262 16.0924 107.024 15.3575 107.024 14.4551C107.024 13.4868 107.282 12.7024 107.8 12.1033C108.301 11.5449 108.915 11.2657 109.647 11.2657C110.45 11.2657 111.012 11.536 111.332 12.078H111.357V8.64355H112.689V15.7599C112.689 16.3424 112.704 16.8793 112.736 17.3717ZM111.357 14.8486V13.851C111.357 13.6784 111.345 13.5388 111.321 13.4322C111.246 13.1123 111.085 12.8433 110.84 12.6262C110.592 12.4092 110.294 12.3001 109.95 12.3001C109.454 12.3001 109.065 12.4968 108.78 12.8915C108.497 13.2862 108.353 13.7901 108.353 14.4056C108.353 14.9971 108.489 15.4768 108.762 15.8462C109.05 16.2396 109.438 16.4363 109.924 16.4363C110.361 16.4363 110.71 16.2726 110.975 15.9439C111.232 15.6406 111.357 15.275 111.357 14.8486Z" fill="#555555"/>
<path d="M124.111 14.3309C124.111 15.2511 123.849 16.0049 123.323 16.5964C122.772 17.2043 122.044 17.5077 121.131 17.5077C120.254 17.5077 119.555 17.217 119.032 16.6332C118.512 16.0506 118.252 15.3158 118.252 14.4299C118.252 13.5034 118.519 12.7431 119.058 12.153C119.596 11.5628 120.319 11.2671 121.232 11.2671C122.109 11.2671 122.816 11.5577 123.349 12.1403C123.856 12.7063 124.111 13.4374 124.111 14.3309ZM122.733 14.374C122.733 13.822 122.614 13.3485 122.376 12.9538C122.096 12.4766 121.7 12.238 121.182 12.238C120.649 12.238 120.243 12.4766 119.962 12.9538C119.724 13.3485 119.606 13.8296 119.606 14.3982C119.606 14.9503 119.725 15.4237 119.962 15.8184C120.251 16.2956 120.652 16.5342 121.169 16.5342C121.677 16.5342 122.077 16.2918 122.364 15.8057C122.609 15.4034 122.733 14.9261 122.733 14.374Z" fill="#555555"/>
<path d="M131.263 17.3718H129.934V13.945C129.934 12.889 129.533 12.361 128.727 12.361C128.333 12.361 128.014 12.5057 127.768 12.7964C127.522 13.087 127.399 13.4297 127.399 13.8219V17.3705H126.067V13.0984C126.067 12.573 126.052 12.0031 126.02 11.3863H127.188L127.25 12.3217H127.287C127.443 12.031 127.674 11.7912 127.976 11.5995C128.338 11.3761 128.74 11.2632 129.183 11.2632C129.74 11.2632 130.205 11.4434 130.574 11.8051C131.035 12.2481 131.263 12.9093 131.263 13.7876V17.3718Z" fill="#555555"/>
<path d="M140.215 12.3853H138.75V15.2917C138.75 16.0303 139.01 16.3997 139.526 16.3997C139.764 16.3997 139.962 16.3794 140.118 16.3375L140.153 17.3465C139.89 17.4455 139.545 17.495 139.119 17.495C138.594 17.495 138.185 17.3351 137.89 17.0152C137.593 16.6954 137.445 16.1573 137.445 15.4021V12.3853H136.571V11.3889H137.445V10.2924L138.749 9.89893V11.3877H140.214L140.215 12.3853Z" fill="#555555"/>
<path d="M147.256 17.3717H145.925V13.9703C145.925 12.8979 145.524 12.361 144.72 12.361C144.104 12.361 143.682 12.6719 143.451 13.2938C143.412 13.4246 143.389 13.5845 143.389 13.7723V17.3705H142.06V8.64355H143.389V12.2493H143.414C143.833 11.5931 144.434 11.2657 145.212 11.2657C145.762 11.2657 146.218 11.4459 146.58 11.8076C147.03 12.2582 147.256 12.9283 147.256 13.8142V17.3717Z" fill="#555555"/>
<path d="M154.52 14.0971C154.52 14.3357 154.502 14.5362 154.47 14.6999H150.481C150.499 15.2914 150.689 15.7419 151.059 16.0541C151.396 16.3334 151.832 16.473 152.365 16.473C152.955 16.473 153.493 16.3791 153.978 16.19L154.186 17.1139C153.619 17.3601 152.951 17.4832 152.178 17.4832C151.252 17.4832 150.522 17.2104 149.994 16.6646C149.463 16.1189 149.201 15.3866 149.201 14.4677C149.201 13.5653 149.446 12.8139 149.939 12.2149C150.455 11.5752 151.151 11.2554 152.031 11.2554C152.891 11.2554 153.545 11.5752 153.987 12.2149C154.343 12.7225 154.52 13.3508 154.52 14.0971ZM153.251 13.7531C153.261 13.3584 153.173 13.0183 152.993 12.7314C152.762 12.3621 152.41 12.1768 151.934 12.1768C151.5 12.1768 151.146 12.357 150.876 12.7187C150.655 13.0068 150.524 13.3508 150.481 13.7531H153.251Z" fill="#555555"/>
</svg>
