<svg width="15" height="27" viewBox="0 0 15 27" fill="none" xmlns="http://www.w3.org/2000/svg">
<path d="M8.46558 1.52544C8.46558 0.973152 8.01786 0.525436 7.46558 0.525436C6.91329 0.525436 6.46558 0.973152 6.46558 1.52544L8.46558 1.52544ZM6.75847 26.6199C7.14899 27.0105 7.78216 27.0105 8.17268 26.6199L14.5366 20.256C14.9272 19.8655 14.9272 19.2323 14.5366 18.8418C14.1461 18.4512 13.513 18.4512 13.1224 18.8418L7.46558 24.4986L1.80872 18.8418C1.4182 18.4512 0.785032 18.4512 0.394508 18.8418C0.00398368 19.2323 0.00398371 19.8655 0.394508 20.256L6.75847 26.6199ZM6.46558 1.52544L6.46558 25.9128L8.46558 25.9128L8.46558 1.52544L6.46558 1.52544Z" fill="white" fill-opacity="0.5"/>
</svg>
