<svg width="62" height="15" viewBox="0 0 62 15" fill="none" xmlns="http://www.w3.org/2000/svg">
<path d="M60.514 8.62195C61.0663 8.62195 61.514 8.17423 61.514 7.62195C61.514 7.06966 61.0663 6.62195 60.514 6.62195V8.62195ZM0.407639 6.91484C0.017115 7.30537 0.017115 7.93853 0.407639 8.32906L6.7716 14.693C7.16212 15.0835 7.79529 15.0835 8.18581 14.693C8.57634 14.3025 8.57634 13.6693 8.18581 13.2788L2.52896 7.62195L8.18581 1.96509C8.57634 1.57457 8.57634 0.941405 8.18581 0.55088C7.79529 0.160356 7.16212 0.160356 6.7716 0.55088L0.407639 6.91484ZM60.514 6.62195H1.11475V8.62195H60.514V6.62195Z" fill="white" fill-opacity="0.5"/>
</svg>
