<svg width="125" height="49" viewBox="0 0 125 49" fill="none" xmlns="http://www.w3.org/2000/svg">
<path d="M62.2934 18.6909C62.2934 19.6372 62.1507 20.5085 61.8653 21.3046C61.5799 22.1007 61.1518 22.7917 60.581 23.3775C60.0252 23.9634 59.3267 24.4215 58.4855 24.752C57.6443 25.0824 56.6754 25.2477 55.5789 25.2477C54.4673 25.2477 53.4909 25.0824 52.6497 24.752C51.8086 24.4215 51.1026 23.9634 50.5318 23.3775C49.976 22.7917 49.5554 22.1007 49.27 21.3046C48.9846 20.5085 48.8419 19.6372 48.8419 18.6909V8.88956H52.3568V18.5557C52.3568 19.0514 52.4319 19.5096 52.5821 19.9302C52.7474 20.3508 52.9727 20.7188 53.2581 21.0342C53.5435 21.3346 53.8815 21.575 54.272 21.7552C54.6776 21.9205 55.1132 22.0031 55.5789 22.0031C56.0445 22.0031 56.4726 21.9205 56.8632 21.7552C57.2538 21.575 57.5917 21.3346 57.8771 21.0342C58.1625 20.7188 58.3803 20.3508 58.5306 19.9302C58.6958 19.5096 58.7784 19.0514 58.7784 18.5557V8.88956H62.2934V18.6909Z" fill="white"/>
<path d="M65.4301 7.91187H68.8098V15.0633H68.8549C69.2454 14.5375 69.7411 14.1695 70.342 13.9592C70.9579 13.7339 71.6188 13.6212 72.3248 13.6212C73.1059 13.6212 73.8044 13.7865 74.4202 14.1169C75.0361 14.4324 75.5544 14.8605 75.975 15.4013C76.4106 15.942 76.741 16.5654 76.9664 17.2714C77.2067 17.9624 77.3269 18.6909 77.3269 19.457C77.3269 20.2832 77.1992 21.0417 76.9438 21.7327C76.6885 22.4237 76.3204 23.0245 75.8398 23.5353C75.3741 24.031 74.8108 24.4215 74.1499 24.7069C73.4889 24.9773 72.7529 25.1125 71.9418 25.1125C71.5512 25.1125 71.1832 25.0599 70.8377 24.9548C70.4922 24.8496 70.1693 24.7144 69.8688 24.5492C69.5834 24.384 69.3281 24.2037 69.1027 24.0084C68.8924 23.7981 68.7197 23.5953 68.5845 23.4001H68.5394V24.8421H65.4301V7.91187ZM68.5394 19.3669C68.5394 20.193 68.7723 20.8615 69.2379 21.3722C69.7186 21.8829 70.3871 22.1383 71.2433 22.1383C72.0995 22.1383 72.7604 21.8829 73.2261 21.3722C73.7067 20.8615 73.9471 20.193 73.9471 19.3669C73.9471 18.5407 73.7067 17.8723 73.2261 17.3615C72.7604 16.8508 72.0995 16.5954 71.2433 16.5954C70.3871 16.5954 69.7186 16.8508 69.2379 17.3615C68.7723 17.8723 68.5394 18.5407 68.5394 19.3669Z" fill="white"/>
<path d="M89.8519 24.8421H86.6073V23.355H86.5623C86.4421 23.5653 86.2844 23.7756 86.0891 23.9859C85.9089 24.1962 85.6835 24.384 85.4132 24.5492C85.1428 24.7144 84.8348 24.8496 84.4893 24.9548C84.1439 25.0599 83.7683 25.1125 83.3628 25.1125C82.5066 25.1125 81.8081 24.9848 81.2673 24.7294C80.7416 24.4591 80.3285 24.091 80.028 23.6254C79.7426 23.1597 79.5474 22.6114 79.4422 21.9806C79.3521 21.3497 79.307 20.6662 79.307 19.9302V13.8916H82.6868V19.2542C82.6868 19.5697 82.6943 19.9001 82.7093 20.2456C82.7394 20.5761 82.807 20.884 82.9121 21.1694C83.0323 21.4548 83.205 21.6876 83.4304 21.8679C83.6707 22.0482 84.0087 22.1383 84.4443 22.1383C84.8799 22.1383 85.2329 22.0632 85.5033 21.913C85.7737 21.7477 85.9764 21.5374 86.1116 21.2821C86.2619 21.0117 86.3595 20.7113 86.4046 20.3808C86.4496 20.0503 86.4721 19.7048 86.4721 19.3443V13.8916H89.8519V24.8421Z" fill="white"/>
<path d="M92.2452 13.8916H95.4898V15.3787H95.5349C95.64 15.1684 95.7902 14.9581 95.9855 14.7478C96.1808 14.5375 96.4136 14.3498 96.684 14.1845C96.9544 14.0193 97.2623 13.8841 97.6078 13.779C97.9533 13.6738 98.3288 13.6212 98.7344 13.6212C99.5906 13.6212 100.282 13.7564 100.807 14.0268C101.333 14.2822 101.739 14.6427 102.024 15.1083C102.324 15.574 102.527 16.1223 102.632 16.7532C102.738 17.3841 102.79 18.0675 102.79 18.8036V24.8421H99.4104V19.4795C99.4104 19.1641 99.3953 18.8411 99.3653 18.5107C99.3503 18.1652 99.2827 17.8497 99.1625 17.5643C99.0574 17.2789 98.8846 17.0461 98.6443 16.8658C98.4189 16.6856 98.0885 16.5954 97.6529 16.5954C97.2173 16.5954 96.8643 16.6781 96.5939 16.8433C96.3235 16.9935 96.1132 17.2038 95.963 17.4742C95.8278 17.7296 95.7377 18.0225 95.6926 18.3529C95.6475 18.6834 95.625 19.0289 95.625 19.3894V24.8421H92.2452V13.8916Z" fill="white"/>
<path d="M112.641 16.5954H109.667V20.2456C109.667 20.546 109.682 20.8239 109.712 21.0793C109.742 21.3196 109.81 21.5299 109.915 21.7102C110.02 21.8904 110.178 22.0331 110.388 22.1383C110.614 22.2284 110.907 22.2735 111.267 22.2735C111.447 22.2735 111.68 22.2584 111.966 22.2284C112.266 22.1833 112.491 22.0932 112.641 21.958V24.7745C112.266 24.9097 111.875 24.9998 111.47 25.0449C111.064 25.09 110.666 25.1125 110.276 25.1125C109.705 25.1125 109.179 25.0524 108.698 24.9322C108.218 24.8121 107.797 24.6243 107.437 24.3689C107.076 24.0986 106.791 23.7531 106.58 23.3325C106.385 22.9119 106.287 22.4012 106.287 21.8003V16.5954H104.124V13.8916H106.287V9.90448H109.667V13.8916H112.641V16.5954Z" fill="white"/>
<path d="M124.904 24.8421H121.659V23.355H121.614C121.494 23.5653 121.336 23.7756 121.141 23.9859C120.961 24.1962 120.736 24.384 120.465 24.5492C120.195 24.7144 119.887 24.8496 119.541 24.9548C119.196 25.0599 118.82 25.1125 118.415 25.1125C117.559 25.1125 116.86 24.9848 116.319 24.7294C115.794 24.4591 115.38 24.091 115.08 23.6254C114.795 23.1597 114.599 22.6114 114.494 21.9806C114.404 21.3497 114.359 20.6662 114.359 19.9302V13.8916H117.739V19.2542C117.739 19.5697 117.746 19.9001 117.761 20.2456C117.791 20.5761 117.859 20.884 117.964 21.1694C118.084 21.4548 118.257 21.6876 118.482 21.8679C118.723 22.0482 119.061 22.1383 119.496 22.1383C119.932 22.1383 120.285 22.0632 120.555 21.913C120.826 21.7477 121.028 21.5374 121.164 21.2821C121.314 21.0117 121.411 20.7113 121.457 20.3808C121.502 20.0503 121.524 19.7048 121.524 19.3443V13.8916H124.904V24.8421Z" fill="white"/>
<path d="M48.8719 30.3248H57.2275V31.7894H50.4491V35.9578H56.7768V37.4224H50.4491V42.1541H57.5654V43.6186H48.8719V30.3248Z" fill="white"/>
<path d="M59.7393 36.9154C59.7393 36.5148 59.7267 36.1393 59.7017 35.7888C59.6767 35.4383 59.6642 35.1191 59.6642 34.8312H61.0536C61.0536 35.0691 61.0599 35.3069 61.0724 35.5447C61.0849 35.7826 61.0912 36.0267 61.0912 36.277H61.1287C61.2289 36.0642 61.3666 35.8577 61.5418 35.6574C61.7296 35.4571 61.9486 35.2819 62.199 35.1316C62.4493 34.9689 62.731 34.8437 63.0439 34.7561C63.3569 34.656 63.6949 34.6059 64.0579 34.6059C64.6337 34.6059 65.1281 34.6935 65.5412 34.8688C65.9668 35.044 66.3173 35.2881 66.5927 35.6011C66.8681 35.914 67.0684 36.2958 67.1936 36.7464C67.3312 37.1845 67.4001 37.6665 67.4001 38.1922V43.6186H65.9355V38.3424C65.9355 37.6039 65.7728 37.0218 65.4473 36.5962C65.1219 36.1706 64.6149 35.9578 63.9264 35.9578C63.4508 35.9578 63.0377 36.0392 62.6872 36.2019C62.3492 36.3646 62.0676 36.5962 61.8422 36.8966C61.6294 37.1971 61.4667 37.5538 61.354 37.9669C61.2539 38.38 61.2038 38.8369 61.2038 39.3376V43.6186H59.7393V36.9154Z" fill="white"/>
<path d="M78.0213 42.0226C77.4956 42.6986 76.9197 43.1743 76.2939 43.4496C75.668 43.7125 74.942 43.844 74.1158 43.844C73.4273 43.844 72.8077 43.725 72.2569 43.4872C71.7061 43.2368 71.2367 42.9051 70.8487 42.492C70.4731 42.079 70.179 41.5908 69.9662 41.0275C69.7659 40.4642 69.6657 39.8633 69.6657 39.2249C69.6657 38.549 69.7784 37.9293 70.0037 37.3661C70.229 36.7902 70.542 36.302 70.9426 35.9015C71.3431 35.4884 71.8188 35.1692 72.3696 34.9439C72.9203 34.7186 73.5212 34.6059 74.1721 34.6059C74.7855 34.6059 75.3488 34.7123 75.862 34.9251C76.3752 35.1254 76.8133 35.4258 77.1764 35.8264C77.5519 36.2144 77.8398 36.6964 78.0401 37.2722C78.2404 37.8355 78.3405 38.4801 78.3405 39.2061V39.6756H71.243C71.268 40.0511 71.3556 40.4141 71.5058 40.7646C71.6686 41.1026 71.8751 41.403 72.1255 41.6659C72.3758 41.9162 72.67 42.1165 73.008 42.2667C73.3459 42.4169 73.7152 42.492 74.1158 42.492C74.7542 42.492 75.2924 42.3794 75.7306 42.1541C76.1687 41.9287 76.563 41.597 76.9135 41.1589L78.0213 42.0226ZM76.7633 38.4363C76.7382 37.6852 76.4941 37.0844 76.031 36.6338C75.5678 36.1831 74.9294 35.9578 74.1158 35.9578C73.3021 35.9578 72.645 36.1831 72.1442 36.6338C71.6435 37.0844 71.3431 37.6852 71.243 38.4363H76.7633Z" fill="white"/>
<path d="M80.6062 36.9154C80.6062 36.5148 80.5936 36.1393 80.5686 35.7888C80.5436 35.4383 80.5311 35.1191 80.5311 34.8312H81.9205C81.9205 35.0691 81.9268 35.3069 81.9393 35.5447C81.9518 35.7826 81.9581 36.0267 81.9581 36.277H81.9956C82.0958 36.0642 82.2335 35.8577 82.4087 35.6574C82.5965 35.4571 82.8155 35.2819 83.0659 35.1316C83.3162 34.9689 83.5979 34.8437 83.9108 34.7561C84.2238 34.656 84.5617 34.6059 84.9248 34.6059C85.0249 34.6059 85.125 34.6122 85.2252 34.6247C85.3253 34.6372 85.4255 34.6622 85.5256 34.6998L85.4317 36.1831C85.1814 36.108 84.9185 36.0705 84.6431 36.0705C83.7418 36.0705 83.0847 36.3646 82.6716 36.953C82.271 37.5288 82.0707 38.3237 82.0707 39.3376V43.6186H80.6062V36.9154Z" fill="white"/>
<path d="M95.6459 43.2243C95.6459 44.8266 95.2328 46.0408 94.4066 46.867C93.593 47.7057 92.41 48.125 90.8578 48.125C89.9941 48.125 89.2118 47.9998 88.5108 47.7495C87.8223 47.4991 87.1651 47.0673 86.5393 46.4539L87.5907 45.2522C88.0539 45.7529 88.5421 46.1284 89.0553 46.3788C89.581 46.6417 90.1819 46.7731 90.8578 46.7731C91.5088 46.7731 92.047 46.673 92.4726 46.4727C92.9108 46.2849 93.255 46.022 93.5053 45.6841C93.7557 45.3586 93.9309 44.9831 94.0311 44.5575C94.1312 44.1319 94.1813 43.6875 94.1813 43.2243V42.0977H94.1437C93.7933 42.661 93.3363 43.0741 92.7731 43.337C92.2098 43.5999 91.6339 43.7313 91.0456 43.7313C90.3571 43.7313 89.725 43.6186 89.1492 43.3933C88.5734 43.168 88.0789 42.8551 87.6658 42.4545C87.2528 42.0539 86.9336 41.5782 86.7082 41.0275C86.4829 40.4767 86.3703 39.8758 86.3703 39.2249C86.3703 38.5114 86.4829 37.8668 86.7082 37.2909C86.9336 36.7151 87.2465 36.2332 87.6471 35.8451C88.0601 35.4446 88.5546 35.1379 89.1304 34.9251C89.7062 34.7123 90.3446 34.6059 91.0456 34.6059C91.346 34.6059 91.6465 34.6435 91.9469 34.7186C92.2473 34.7811 92.5352 34.8875 92.8106 35.0378C93.0985 35.1755 93.3551 35.357 93.5804 35.5823C93.8058 35.7951 93.9935 36.0454 94.1437 36.3333H94.1813V34.8312H95.6459V43.2243ZM87.9475 39.2249C87.9475 39.6756 88.0288 40.0949 88.1916 40.483C88.3543 40.8585 88.5734 41.1902 88.8488 41.4781C89.1367 41.7535 89.4684 41.9726 89.8439 42.1353C90.2195 42.298 90.62 42.3794 91.0456 42.3794C91.5463 42.3794 91.9907 42.2918 92.3787 42.1165C92.7668 41.9413 93.0923 41.7097 93.3551 41.4218C93.6305 41.1214 93.8371 40.7834 93.9748 40.4079C94.1124 40.0198 94.1813 39.613 94.1813 39.1874C94.1813 38.7117 94.1062 38.2798 93.956 37.8918C93.8058 37.4912 93.593 37.147 93.3176 36.8591C93.0422 36.5712 92.7105 36.3521 92.3224 36.2019C91.9344 36.0392 91.5088 35.9578 91.0456 35.9578C90.5825 35.9578 90.1569 36.0454 89.7688 36.2207C89.3933 36.3834 89.0678 36.615 88.7924 36.9154C88.5296 37.2033 88.323 37.5476 88.1728 37.9481C88.0226 38.3362 87.9475 38.7618 87.9475 39.2249Z" fill="white"/>
<path d="M101.585 45.6277C101.435 46.0033 101.279 46.3412 101.116 46.6417C100.966 46.9546 100.778 47.2175 100.553 47.4303C100.34 47.6556 100.077 47.8246 99.7641 47.9372C99.4637 48.0624 99.0944 48.125 98.6563 48.125C98.4435 48.125 98.2182 48.1125 97.9803 48.0874C97.755 48.0624 97.5422 47.9998 97.3419 47.8997L97.5297 46.6229C97.6799 46.6855 97.8364 46.723 97.9991 46.7355C98.1618 46.7606 98.3496 46.7731 98.5624 46.7731C99.0381 46.7731 99.3886 46.6417 99.6139 46.3788C99.8392 46.1159 100.033 45.7654 100.196 45.3273L100.797 43.675L97.1541 34.8312H98.8628L101.585 41.7222H101.623L104.233 34.8312H105.829L101.585 45.6277Z" fill="white"/>
<path fill-rule="evenodd" clip-rule="evenodd" d="M6.07337 29.9704V8.81784H0.857666V29.9704C0.857666 39.4122 8.51177 47.0663 17.9536 47.0663C27.3954 47.0663 35.0495 39.4122 35.0495 29.9704V8.81784H29.8338V29.9704C29.8338 36.5317 24.5148 41.8506 17.9536 41.8506C11.3923 41.8506 6.07337 36.5317 6.07337 29.9704Z" fill="white"/>
<path d="M18.2627 17.1576C19.7029 17.1576 20.8705 15.99 20.8705 14.5497V0.125H15.6548V14.5497C15.6548 15.99 16.8224 17.1576 18.2627 17.1576Z" fill="white"/>
</svg>
