<svg width="173" height="52" viewBox="0 0 173 52" fill="none" xmlns="http://www.w3.org/2000/svg">
<g clip-path="url(#clip0_2786_186)">
<path d="M165.678 0.556641H7.03512C3.54491 0.556641 0.689331 3.41222 0.689331 6.90243V44.9772C0.689331 48.4674 3.54491 51.323 7.03512 51.323H165.678C169.168 51.323 172.023 48.4674 172.023 44.9772V6.90243C172.023 3.41222 169.168 0.556641 165.678 0.556641Z" fill="white"/>
<path d="M7.03512 1.05664H165.678C168.892 1.05664 171.523 3.68837 171.523 6.90243V44.9772C171.523 48.1912 168.892 50.823 165.678 50.823H7.03512C3.82106 50.823 1.18933 48.1912 1.18933 44.9772V6.90243C1.18933 3.68837 3.82106 1.05664 7.03512 1.05664Z" stroke="#31B27C" stroke-opacity="0.25"/>
<path d="M136.407 38.6314H138.775V22.7643H136.407V38.6314ZM157.738 28.4804L155.023 35.3591H154.942L152.124 28.4804H149.573L153.8 38.0945L151.39 43.4427H153.859L160.372 28.4809L157.738 28.4804ZM144.307 36.8291C143.532 36.8291 142.45 36.4408 142.45 35.4816C142.45 34.2569 143.798 33.7875 144.96 33.7875C146.001 33.7875 146.492 34.0116 147.124 34.318C146.94 35.7879 145.675 36.8291 144.307 36.8291ZM144.593 28.1333C142.879 28.1333 141.103 28.8888 140.368 30.5626L142.47 31.4401C142.919 30.5626 143.756 30.2771 144.634 30.2771C145.859 30.2771 147.104 31.0113 147.124 32.3182V32.4813C146.695 32.2363 145.776 31.869 144.654 31.869C142.388 31.869 140.082 33.1138 140.082 35.4409C140.082 37.5638 141.94 38.9316 144.021 38.9316C145.613 38.9316 146.492 38.2171 147.042 37.3799H147.124V38.6054H149.411V32.5218C149.411 29.7049 147.307 28.1333 144.593 28.1333ZM129.957 30.4119H126.589V24.9734H129.957C131.728 24.9734 132.733 26.439 132.733 27.6926C132.733 28.9222 131.728 30.4119 129.957 30.4119ZM129.896 22.7646H124.222V38.6317H126.589V32.6206H129.896C132.521 32.6206 135.101 30.7209 135.101 27.6932C135.101 24.6661 132.521 22.7646 129.896 22.7646ZM98.9531 36.8317C97.317 36.8317 95.9477 35.4614 95.9477 33.581C95.9477 31.6787 97.317 30.2891 98.9531 30.2891C100.568 30.2891 101.836 31.6788 101.836 33.581C101.836 35.4614 100.568 36.8317 98.9531 36.8317ZM101.672 29.3686H101.59C101.059 28.7349 100.036 28.1624 98.7488 28.1624C96.0493 28.1624 93.5754 30.5346 93.5754 33.581C93.5754 36.6067 96.0493 38.9581 98.7488 38.9581C100.036 38.9581 101.059 38.3854 101.59 37.7315H101.672V38.5079C101.672 40.5738 100.568 41.6773 98.7894 41.6773C97.3383 41.6773 96.4385 40.6347 96.0702 39.7556L94.0054 40.6143C94.5979 42.045 96.1718 43.8041 98.7895 43.8041C101.571 43.8041 103.922 42.168 103.922 38.1806V28.4894H101.672L101.672 29.3686ZM105.558 38.6309H107.929V22.7638H105.558V38.6309ZM111.426 33.3966C111.365 31.3109 113.042 30.248 114.248 30.248C115.188 30.248 115.985 30.7184 116.252 31.3927L111.426 33.3966ZM118.786 31.597C118.337 30.3913 116.967 28.1624 114.166 28.1624C111.384 28.1624 109.074 30.3501 109.074 33.5603C109.074 36.5864 111.365 38.9581 114.431 38.9581C116.905 38.9581 118.337 37.4456 118.93 36.566L117.09 35.3391C116.476 36.2389 115.638 36.8318 114.431 36.8318C113.225 36.8318 112.366 36.2796 111.815 35.1959L119.032 32.2108L118.786 31.597ZM61.2833 29.8186V32.1086H66.7629C66.5993 33.3967 66.17 34.3371 65.5156 34.9915C64.7179 35.7887 63.4706 36.6682 61.2833 36.6682C57.9095 36.6682 55.2721 33.9489 55.2721 30.5752C55.2721 27.2015 57.9095 24.4819 61.2833 24.4819C63.1031 24.4819 64.4318 25.1977 65.4133 26.1178L67.0291 24.5021C65.6587 23.1938 63.8393 22.1919 61.2833 22.1919C56.6616 22.1919 52.7769 25.9542 52.7769 30.5752C52.7769 35.1958 56.6616 38.9581 61.2833 38.9581C63.7774 38.9581 65.6588 38.1402 67.1307 36.6068C68.6439 35.0937 69.1143 32.9673 69.1143 31.2495C69.1143 30.7185 69.073 30.2278 68.9913 29.8186H61.2833ZM75.3447 36.8317C73.7086 36.8317 72.2977 35.4822 72.2977 33.5603C72.2977 31.6178 73.7086 30.2892 75.3447 30.2892C76.9802 30.2892 78.391 31.6178 78.391 33.5603C78.391 35.4822 76.9802 36.8317 75.3447 36.8317ZM75.3447 28.1624C72.3586 28.1624 69.9259 30.4319 69.9259 33.5603C69.9259 36.6682 72.3586 38.9581 75.3447 38.9581C78.3296 38.9581 80.7629 36.6682 80.7629 33.5603C80.7629 30.4319 78.3296 28.1624 75.3447 28.1624ZM87.1644 36.8317C85.5294 36.8317 84.118 35.4822 84.118 33.5603C84.118 31.6178 85.5295 30.2892 87.1644 30.2892C88.8005 30.2892 90.2109 31.6178 90.2109 33.5603C90.2109 35.4822 88.8005 36.8317 87.1644 36.8317ZM87.1644 28.1624C84.1794 28.1624 81.7467 30.4319 81.7467 33.5603C81.7467 36.6682 84.1794 38.9581 87.1644 38.9581C90.1504 38.9581 92.5832 36.6682 92.5832 33.5603C92.5832 30.4319 90.1504 28.1624 87.1644 28.1624Z" fill="#555555"/>
<path d="M26.9793 25.2087L13.4681 39.5499C13.4686 39.5528 13.4697 39.5553 13.4701 39.5584C13.8845 41.1156 15.3069 42.2623 16.995 42.2623C17.6698 42.2623 18.3034 42.0799 18.8467 41.7596L18.8899 41.7343L34.0992 32.9579L26.9793 25.2087Z" fill="#EB3131"/>
<path d="M40.6494 22.7671L40.6364 22.7583L34.0701 18.9517L26.6722 25.5346L34.0958 32.9571L40.6275 29.1884C41.7726 28.5702 42.55 27.363 42.55 25.9708C42.55 24.5887 41.7831 23.3874 40.6494 22.7671Z" fill="#F6B60B"/>
<path d="M13.4661 12.3306C13.3849 12.6301 13.3422 12.9438 13.3422 13.2696V38.6119C13.3422 38.937 13.3844 39.2518 13.4666 39.5503L27.4442 25.5756L13.4661 12.3306Z" fill="#5778C5"/>
<path d="M27.0791 25.9408L34.073 18.949L18.8808 10.1408C18.3286 9.81002 17.6841 9.61914 16.9944 9.61914C15.3063 9.61914 13.882 10.7679 13.4675 12.327C13.467 12.3285 13.467 12.3296 13.467 12.3309L27.0791 25.9408Z" fill="#3BAD49"/>
<path d="M60.839 12.9701H57.1366V13.8864H59.911C59.8356 14.634 59.5381 15.221 59.0364 15.6474C58.5347 16.0738 57.8941 16.2879 57.1366 16.2879C56.3057 16.2879 55.6017 15.9984 55.0247 15.4234C54.4595 14.8364 54.172 14.1105 54.172 13.236C54.172 12.3616 54.4595 11.6357 55.0247 11.0487C55.6017 10.4737 56.3057 10.1861 57.1366 10.1861C57.5631 10.1861 57.9696 10.2595 58.3423 10.4201C58.7152 10.5807 59.0146 10.8048 59.2486 11.0924L59.9526 10.3884C59.6333 10.0254 59.2288 9.74786 58.7269 9.54556C58.2252 9.34325 57.7017 9.24616 57.1365 9.24616C56.028 9.24616 55.0881 9.63084 54.3206 10.3983C53.5532 11.1677 53.1685 12.1156 53.1685 13.236C53.1685 14.3564 53.5531 15.3064 54.3206 16.0739C55.0881 16.8412 56.028 17.2261 57.1365 17.2261C58.3006 17.2261 59.2287 16.8532 59.9426 16.0956C60.5712 15.4651 60.8924 14.6124 60.8924 13.5455C60.8924 13.365 60.8707 13.1725 60.839 12.9701ZM62.2733 9.41654V17.0554H66.7331V16.1173H63.2549V13.6941H66.3921V12.7779H63.2549V10.3566H66.7331V9.41651L62.2733 9.41654ZM72.9868 10.3566V9.41654H67.7376V10.3566H69.8715V17.0554H70.8531V10.3566H72.9868ZM77.7392 9.41654H76.7576V17.0554H77.7392V9.41654ZM84.2183 10.3566V9.41654H78.9692V10.3566H81.1029V17.0554H82.0845V10.3566H84.2183ZM94.1237 10.4102C93.3661 9.63078 92.4381 9.24609 91.3295 9.24609C90.2191 9.24609 89.291 9.63077 88.5334 10.3983C87.7759 11.1558 87.4032 12.1057 87.4032 13.236C87.4032 14.3662 87.7759 15.3162 88.5334 16.0738C89.291 16.8412 90.2191 17.226 91.3295 17.226C92.4281 17.226 93.3661 16.8412 94.1237 16.0738C94.8813 15.3163 95.254 14.3663 95.254 13.236C95.254 12.1156 94.8812 11.1676 94.1237 10.4102ZM89.2375 11.0487C89.8026 10.4736 90.4967 10.186 91.3295 10.186C92.1604 10.186 92.8545 10.4736 93.4098 11.0487C93.9749 11.6138 94.2525 12.3514 94.2525 13.2359C94.2525 14.1224 93.9749 14.8581 93.4098 15.4233C92.8545 15.9983 92.1604 16.2878 91.3295 16.2878C90.4967 16.2878 89.8026 15.9983 89.2375 15.4233C88.6841 14.8462 88.4065 14.1224 88.4065 13.2359C88.4065 12.3515 88.6841 11.6257 89.2375 11.0487ZM97.5861 12.298L97.5445 10.8245H97.5861L101.469 17.0553H102.494V9.41646H101.513V13.8863L101.554 15.3598H101.513L97.8003 9.41646H96.6045V17.0553H97.5861V12.298Z" fill="#555555" stroke="#555555" stroke-width="0.26666" stroke-miterlimit="10"/>
</g>
<defs>
<clipPath id="clip0_2786_186">
<rect width="171.341" height="50.7673" fill="white" transform="translate(0.686035 0.555664)"/>
</clipPath>
</defs>
</svg>
