<svg width="153" height="153" viewBox="0 0 153 153" fill="none" xmlns="http://www.w3.org/2000/svg">
<g clip-path="url(#clip0_2786_95)">
<rect x="1.80322" y="1.36816" width="150" height="150" rx="75" fill="white"/>
<rect x="27.0402" y="60.6626" width="51.5186" height="107.903" rx="8" transform="rotate(15 27.0402 60.6626)" stroke="#333333" stroke-width="2"/>
<rect x="44.0107" y="67.876" width="15" height="4.5" rx="2.25" transform="rotate(15 44.0107 67.876)" fill="#333333"/>
<rect x="32.8468" y="109.028" width="15.2648" height="15.2648" rx="7.63238" transform="rotate(15 32.8468 109.028)" fill="#5C9F27"/>
<path fill-rule="evenodd" clip-rule="evenodd" d="M35.497 119.021L36.6427 114.745L35.5884 114.463L34.4427 118.739C33.9313 120.647 35.0639 122.609 36.9725 123.12C38.881 123.632 40.8428 122.499 41.3542 120.59L42.4999 116.315L41.4456 116.032L40.2999 120.308C39.9445 121.634 38.5813 122.421 37.255 122.066C35.9287 121.711 35.1416 120.347 35.497 119.021Z" fill="white"/>
<path d="M38.6549 117.091C38.946 117.169 39.2453 116.996 39.3233 116.705L40.1046 113.79L39.0503 113.507L38.269 116.423C38.191 116.714 38.3638 117.013 38.6549 117.091Z" fill="white"/>
<rect width="45.8393" height="99.292" rx="4" transform="matrix(-0.965926 0.258819 0.258819 0.965926 123.05 60.5044)" stroke="#333333" stroke-width="2"/>
<rect width="3" height="3" rx="1.5" transform="matrix(-0.965926 0.258819 0.258819 0.965926 103.22 69.2573)" fill="#333333"/>
<rect width="13.582" height="13.582" rx="6.79101" transform="matrix(-0.965926 0.258819 0.258819 0.965926 117.883 103.539)" fill="#5C9F27"/>
<path fill-rule="evenodd" clip-rule="evenodd" d="M115.525 112.43L114.506 108.625L115.444 108.374L116.463 112.178C116.918 113.877 115.91 115.622 114.212 116.077C112.514 116.532 110.768 115.524 110.313 113.826L109.294 110.022L110.232 109.77L111.252 113.575C111.568 114.755 112.781 115.455 113.961 115.139C115.141 114.823 115.841 113.61 115.525 112.43Z" fill="white"/>
<path d="M112.715 110.713C112.456 110.782 112.19 110.628 112.12 110.369L111.425 107.775L112.363 107.524L113.059 110.118C113.128 110.377 112.974 110.643 112.715 110.713Z" fill="white"/>
<path d="M58.1005 46.8739C58.0823 44.8525 59.7556 43.8691 59.8321 43.8233C58.8845 42.4417 57.4157 42.2529 56.8995 42.2378C55.6659 42.108 54.4692 42.976 53.8408 42.976C53.1998 42.976 52.2321 42.2504 51.1891 42.2717C49.847 42.2924 48.5914 43.0695 47.9028 44.2761C46.4816 46.7365 47.5415 50.3521 48.9031 52.3409C49.5842 53.3149 50.3801 54.4024 51.4218 54.3641C52.441 54.3221 52.8217 53.7144 54.0515 53.7144C55.2701 53.7144 55.6276 54.3641 56.69 54.3397C57.7838 54.3221 58.4724 53.3613 59.1297 52.3785C59.9168 51.2621 60.2329 50.1627 60.2454 50.1063C60.2197 50.0975 58.1212 49.2966 58.1005 46.8739Z" fill="#555555"/>
<path d="M56.0936 40.9297C56.6417 40.2442 57.0167 39.3116 56.9126 38.3652C56.1193 38.4004 55.1271 38.914 54.5557 39.5844C54.0502 40.1752 53.5987 41.1436 53.7153 42.0542C54.6065 42.1207 55.5216 41.6045 56.0936 40.9297Z" fill="#555555"/>
<path d="M94.7677 47.9356L88.1453 54.9649C88.1455 54.9663 88.146 54.9676 88.1462 54.9691C88.3493 55.7324 89.0465 56.2944 89.8739 56.2944C90.2047 56.2944 90.5152 56.205 90.7815 56.048L90.8027 56.0356L98.2575 51.7339L94.7677 47.9356Z" fill="#EB3131"/>
<path d="M101.468 46.7393L101.462 46.7349L98.2433 44.8691L94.6173 48.0957L98.2559 51.7339L101.457 49.8866C102.019 49.5836 102.4 48.9919 102.4 48.3095C102.4 47.6321 102.024 47.0433 101.468 46.7393Z" fill="#F6B60B"/>
<path d="M88.1442 41.6235C88.1044 41.7703 88.0835 41.9241 88.0835 42.0838V54.5052C88.0835 54.6646 88.1042 54.8189 88.1445 54.9651L94.9955 48.1155L88.1442 41.6235Z" fill="#5778C5"/>
<path d="M94.8167 48.2944L98.2447 44.8674L90.7983 40.5501C90.5276 40.388 90.2117 40.2944 89.8737 40.2944C89.0463 40.2944 88.3482 40.8575 88.145 41.6217C88.1448 41.6224 88.1448 41.6229 88.1448 41.6236L94.8167 48.2944Z" fill="#3BAD49"/>
</g>
<rect x="1.30322" y="0.868164" width="151" height="151" rx="75.5" stroke="#5C9F27" stroke-opacity="0.1"/>
<defs>
<clipPath id="clip0_2786_95">
<rect x="1.80322" y="1.36816" width="150" height="150" rx="75" fill="white"/>
</clipPath>
</defs>
</svg>
