<svg width="153" height="153" viewBox="0 0 153 153" fill="none" xmlns="http://www.w3.org/2000/svg">
<rect x="1.93506" y="1.04199" width="150" height="150" rx="75" fill="white"/>
<rect x="1.43506" y="0.541992" width="151" height="151" rx="75.5" stroke="#5C9F27" stroke-opacity="0.1"/>
<path d="M95.2185 100.785L104.816 86.4119C105.568 85.2867 106.974 85.9853 106.974 87.4839V98.6086C106.974 99.5046 107.526 100.233 108.208 100.233H112.873C113.934 100.233 114.501 101.88 113.8 102.928L104.202 117.301C103.451 118.426 102.044 117.728 102.044 116.229V105.104C102.044 104.208 101.492 103.48 100.811 103.48H96.1449C95.0865 103.48 94.5177 101.832 95.2185 100.785Z" stroke="#5C9F27" stroke-width="2.5" stroke-linecap="round" stroke-linejoin="round"/>
<g clip-path="url(#clip0_2786_119)">
<path d="M94.9351 46.2974H92.9751C91.8691 46.2974 90.9751 47.0154 90.9751 47.8994C90.9751 48.7814 91.8691 49.4974 92.9751 49.4974H94.9351C96.0391 49.4974 96.9351 48.7834 96.9351 47.8994C96.9351 47.0174 96.0371 46.2974 94.9351 46.2974ZM76.9351 36.8994C75.4893 36.8949 74.0568 37.1764 72.7202 37.7276C71.3836 38.2788 70.1692 39.0889 69.1469 40.1112C68.1245 41.1336 67.3145 42.348 66.7632 43.6846C66.212 45.0212 65.9306 46.4536 65.9351 47.8994C65.9351 54.0014 70.8331 58.8994 76.9351 58.8994C83.0351 58.8994 87.9351 54.0014 87.9351 47.8994C87.9351 41.7974 83.0331 36.8994 76.9351 36.8994ZM76.9351 55.8994C72.5131 55.8994 68.9351 52.3174 68.9351 47.8994C68.9351 43.4774 72.5131 39.8994 76.9351 39.8994C79.0568 39.8994 81.0916 40.7423 82.5919 42.2426C84.0922 43.7429 84.9351 45.7777 84.9351 47.8994C84.9351 50.0211 84.0922 52.056 82.5919 53.5563C81.0916 55.0566 79.0568 55.8994 76.9351 55.8994ZM62.9351 47.8994C62.9351 47.0174 62.0371 46.2974 60.9351 46.2974H58.9351C57.8291 46.2974 56.9351 47.0154 56.9351 47.8994C56.9351 48.7814 57.8291 49.4974 58.9351 49.4974H60.9351C62.0371 49.4974 62.9351 48.7814 62.9351 47.8994ZM76.9351 33.8994C77.8171 33.8994 78.5331 33.0054 78.5331 31.8994V29.8994C78.5331 28.7934 77.8171 27.8994 76.9351 27.8994C76.0511 27.8994 75.3331 28.7934 75.3331 29.8994V31.8994C75.3331 33.0054 76.0511 33.8994 76.9351 33.8994ZM76.9351 61.8994C76.0511 61.8994 75.3331 62.7934 75.3331 63.8994V65.8994C75.3331 67.0054 76.0511 67.8994 76.9351 67.8994C77.8171 67.8994 78.5331 67.0054 78.5331 65.8994V63.8994C78.5331 62.7934 77.8171 61.8994 76.9351 61.8994ZM91.6651 35.4314C92.4471 34.6494 92.5731 33.5094 91.9491 32.8854C91.3251 32.2614 90.1831 32.3894 89.4051 33.1714L88.0051 34.5694C87.2231 35.3514 87.0971 36.4914 87.7211 37.1154C88.3451 37.7394 89.4871 37.6114 90.2671 36.8294L91.6651 35.4314ZM63.6031 58.9654L62.2031 60.3674C61.4211 61.1494 61.2951 62.2854 61.9191 62.9094C62.5431 63.5334 63.6851 63.4094 64.4631 62.6274L65.8631 61.2294C66.6451 60.4474 66.7711 59.3074 66.1471 58.6814C65.5231 58.0554 64.3811 58.1874 63.6031 58.9654ZM64.4651 33.1694C63.6851 32.3874 62.5431 32.2594 61.9191 32.8834C61.2951 33.5074 61.4231 34.6494 62.2011 35.4314L63.6011 36.8294C64.3831 37.6114 65.5211 37.7394 66.1451 37.1154C66.7691 36.4914 66.6431 35.3494 65.8631 34.5694L64.4651 33.1694ZM88.0031 61.2314L89.4031 62.6294C90.1851 63.4114 91.3231 63.5354 91.9471 62.9154C92.5711 62.2914 92.4451 61.1494 91.6631 60.3694L90.2651 58.9714C89.4831 58.1894 88.3431 58.0614 87.7171 58.6854C87.0911 59.3094 87.2211 60.4494 88.0031 61.2314Z" fill="#5C9F27"/>
</g>
<path d="M59.8519 105.051H54.4542C52.4723 105.05 50.8658 103.444 50.8646 101.462C50.8646 99.4805 52.4723 97.8752 54.4542 97.874H59.8519" stroke="#5C9F27" stroke-width="2.5" stroke-linecap="round" stroke-linejoin="round"/>
<path d="M55.0649 101.38H54.6493" stroke="#5C9F27" stroke-width="2.5" stroke-linecap="round" stroke-linejoin="round"/>
<path fill-rule="evenodd" clip-rule="evenodd" d="M41.3303 89.8564H52.8548C56.719 89.8564 59.8517 92.9891 59.8517 96.8533V106.423C59.8517 110.287 56.719 113.42 52.8548 113.42H41.3303C37.4661 113.42 34.3334 110.287 34.3334 106.423V96.8533C34.3334 92.9891 37.4661 89.8564 41.3303 89.8564Z" stroke="#5C9F27" stroke-width="2.5" stroke-linecap="round" stroke-linejoin="round"/>
<path d="M40.3809 95.9074H47.5795" stroke="#5C9F27" stroke-width="2.5" stroke-linecap="round" stroke-linejoin="round"/>
<defs>
<clipPath id="clip0_2786_119">
<rect width="40" height="40" fill="white" transform="translate(56.9351 27.8994)"/>
</clipPath>
</defs>
</svg>
