<svg width="125" height="49" viewBox="0 0 125 49" fill="none" xmlns="http://www.w3.org/2000/svg">
<path d="M61.4357 19.0659C61.4357 20.0122 61.293 20.8835 61.0076 21.6796C60.7222 22.4757 60.2941 23.1667 59.7233 23.7525C59.1675 24.3384 58.469 24.7965 57.6278 25.127C56.7866 25.4574 55.8178 25.6227 54.7212 25.6227C53.6096 25.6227 52.6333 25.4574 51.7921 25.127C50.9509 24.7965 50.2449 24.3384 49.6741 23.7525C49.1183 23.1667 48.6977 22.4757 48.4123 21.6796C48.1269 20.8835 47.9842 20.0122 47.9842 19.0659V9.26456H51.4992V18.9307C51.4992 19.4264 51.5743 19.8846 51.7245 20.3052C51.8897 20.7258 52.115 21.0938 52.4004 21.4092C52.6858 21.7096 53.0238 21.95 53.4144 22.1302C53.8199 22.2955 54.2556 22.3781 54.7212 22.3781C55.1869 22.3781 55.615 22.2955 56.0055 22.1302C56.3961 21.95 56.7341 21.7096 57.0195 21.4092C57.3049 21.0938 57.5227 20.7258 57.6729 20.3052C57.8381 19.8846 57.9207 19.4264 57.9207 18.9307V9.26456H61.4357V19.0659Z" fill="white"/>
<path d="M64.5724 8.28687H67.9522V15.4383H67.9972C68.3878 14.9125 68.8835 14.5445 69.4843 14.3342C70.1002 14.1089 70.7611 13.9962 71.4671 13.9962C72.2482 13.9962 72.9467 14.1615 73.5626 14.4919C74.1785 14.8074 74.6967 15.2355 75.1173 15.7763C75.5529 16.317 75.8834 16.9404 76.1087 17.6464C76.349 18.3374 76.4692 19.0659 76.4692 19.832C76.4692 20.6582 76.3415 21.4167 76.0862 22.1077C75.8308 22.7987 75.4628 23.3995 74.9821 23.9103C74.5164 24.406 73.9531 24.7965 73.2922 25.0819C72.6313 25.3523 71.8952 25.4875 71.0841 25.4875C70.6935 25.4875 70.3255 25.4349 69.98 25.3298C69.6345 25.2246 69.3116 25.0894 69.0112 24.9242C68.7258 24.759 68.4704 24.5787 68.2451 24.3834C68.0348 24.1731 67.862 23.9703 67.7269 23.7751H67.6818V25.2171H64.5724V8.28687ZM67.6818 19.7419C67.6818 20.568 67.9146 21.2365 68.3803 21.7472C68.861 22.2579 69.5294 22.5133 70.3856 22.5133C71.2418 22.5133 71.9027 22.2579 72.3684 21.7472C72.8491 21.2365 73.0894 20.568 73.0894 19.7419C73.0894 18.9157 72.8491 18.2472 72.3684 17.7365C71.9027 17.2258 71.2418 16.9704 70.3856 16.9704C69.5294 16.9704 68.861 17.2258 68.3803 17.7365C67.9146 18.2472 67.6818 18.9157 67.6818 19.7419Z" fill="white"/>
<path d="M88.9943 25.2171H85.7497V23.73H85.7046C85.5844 23.9403 85.4267 24.1506 85.2314 24.3609C85.0512 24.5712 84.8259 24.759 84.5555 24.9242C84.2851 25.0894 83.9772 25.2246 83.6317 25.3298C83.2862 25.4349 82.9107 25.4875 82.5051 25.4875C81.6489 25.4875 80.9504 25.3598 80.4096 25.1044C79.8839 24.8341 79.4708 24.466 79.1704 24.0004C78.885 23.5347 78.6897 22.9864 78.5845 22.3556C78.4944 21.7247 78.4494 21.0412 78.4494 20.3052V14.2666H81.8291V19.6292C81.8291 19.9447 81.8366 20.2751 81.8517 20.6206C81.8817 20.9511 81.9493 21.259 82.0545 21.5444C82.1746 21.8298 82.3474 22.0626 82.5727 22.2429C82.813 22.4232 83.151 22.5133 83.5866 22.5133C84.0222 22.5133 84.3752 22.4382 84.6456 22.288C84.916 22.1227 85.1188 21.9124 85.254 21.6571C85.4042 21.3867 85.5018 21.0863 85.5469 20.7558C85.592 20.4253 85.6145 20.0798 85.6145 19.7193V14.2666H88.9943V25.2171Z" fill="white"/>
<path d="M91.3876 14.2666H94.6321V15.7537H94.6772C94.7824 15.5434 94.9326 15.3331 95.1278 15.1228C95.3231 14.9125 95.5559 14.7248 95.8263 14.5595C96.0967 14.3943 96.4047 14.2591 96.7501 14.154C97.0956 14.0488 97.4712 13.9962 97.8767 13.9962C98.7329 13.9962 99.4239 14.1314 99.9497 14.4018C100.475 14.6572 100.881 15.0177 101.166 15.4833C101.467 15.949 101.67 16.4973 101.775 17.1282C101.88 17.7591 101.932 18.4425 101.932 19.1786V25.2171H98.5527V19.8545C98.5527 19.5391 98.5377 19.2161 98.5076 18.8857C98.4926 18.5402 98.425 18.2247 98.3048 17.9393C98.1997 17.6539 98.0269 17.4211 97.7866 17.2408C97.5613 17.0606 97.2308 16.9704 96.7952 16.9704C96.3596 16.9704 96.0066 17.0531 95.7362 17.2183C95.4658 17.3685 95.2555 17.5788 95.1053 17.8492C94.9701 18.1046 94.88 18.3975 94.8349 18.7279C94.7899 19.0584 94.7673 19.4039 94.7673 19.7644V25.2171H91.3876V14.2666Z" fill="white"/>
<path d="M111.784 16.9704H108.81V20.6206C108.81 20.921 108.825 21.1989 108.855 21.4543C108.885 21.6946 108.952 21.9049 109.057 22.0852C109.163 22.2654 109.32 22.4081 109.531 22.5133C109.756 22.6034 110.049 22.6485 110.409 22.6485C110.59 22.6485 110.822 22.6334 111.108 22.6034C111.408 22.5583 111.634 22.4682 111.784 22.333V25.1495C111.408 25.2847 111.018 25.3748 110.612 25.4199C110.207 25.4649 109.809 25.4875 109.418 25.4875C108.847 25.4875 108.321 25.4274 107.841 25.3072C107.36 25.1871 106.939 24.9993 106.579 24.7439C106.218 24.4736 105.933 24.1281 105.723 23.7075C105.527 23.2869 105.43 22.7762 105.43 22.1753V16.9704H103.267V14.2666H105.43V10.2795H108.81V14.2666H111.784V16.9704Z" fill="white"/>
<path d="M124.046 25.2171H120.802V23.73H120.757C120.636 23.9403 120.479 24.1506 120.283 24.3609C120.103 24.5712 119.878 24.759 119.607 24.9242C119.337 25.0894 119.029 25.2246 118.684 25.3298C118.338 25.4349 117.963 25.4875 117.557 25.4875C116.701 25.4875 116.002 25.3598 115.462 25.1044C114.936 24.8341 114.523 24.466 114.222 24.0004C113.937 23.5347 113.742 22.9864 113.637 22.3556C113.546 21.7247 113.501 21.0412 113.501 20.3052V14.2666H116.881V19.6292C116.881 19.9447 116.889 20.2751 116.904 20.6206C116.934 20.9511 117.001 21.259 117.106 21.5444C117.227 21.8298 117.399 22.0626 117.625 22.2429C117.865 22.4232 118.203 22.5133 118.639 22.5133C119.074 22.5133 119.427 22.4382 119.698 22.288C119.968 22.1227 120.171 21.9124 120.306 21.6571C120.456 21.3867 120.554 21.0863 120.599 20.7558C120.644 20.4253 120.666 20.0798 120.666 19.7193V14.2666H124.046V25.2171Z" fill="white"/>
<path d="M48.0142 30.6998H56.3698V32.1644H49.5915V36.3328H55.9192V37.7974H49.5915V42.5291H56.7078V43.9936H48.0142V30.6998Z" fill="white"/>
<path d="M58.8816 37.2904C58.8816 36.8898 58.8691 36.5143 58.844 36.1638C58.819 35.8133 58.8065 35.4941 58.8065 35.2062H60.196C60.196 35.444 60.2022 35.6819 60.2147 35.9197C60.2272 36.1576 60.2335 36.4017 60.2335 36.652H60.2711C60.3712 36.4392 60.5089 36.2327 60.6842 36.0324C60.8719 35.8321 61.091 35.6568 61.3413 35.5066C61.5917 35.3439 61.8733 35.2187 62.1863 35.1311C62.4992 35.031 62.8372 34.9809 63.2002 34.9809C63.776 34.9809 64.2705 35.0685 64.6836 35.2438C65.1092 35.419 65.4596 35.6631 65.735 35.9761C66.0104 36.289 66.2107 36.6708 66.3359 37.1214C66.4736 37.5595 66.5424 38.0415 66.5424 38.5672V43.9936H65.0779V38.7174C65.0779 37.9789 64.9151 37.3968 64.5897 36.9712C64.2642 36.5456 63.7572 36.3328 63.0688 36.3328C62.5931 36.3328 62.18 36.4142 61.8295 36.5769C61.4915 36.7396 61.2099 36.9712 60.9846 37.2716C60.7718 37.5721 60.609 37.9288 60.4964 38.3419C60.3962 38.755 60.3462 39.2119 60.3462 39.7126V43.9936H58.8816V37.2904Z" fill="white"/>
<path d="M77.1636 42.3976C76.6379 43.0736 76.0621 43.5493 75.4362 43.8246C74.8103 44.0875 74.0843 44.219 73.2581 44.219C72.5696 44.219 71.95 44.1 71.3992 43.8622C70.8484 43.6118 70.3791 43.2801 69.991 42.867C69.6155 42.454 69.3213 41.9658 69.1085 41.4025C68.9082 40.8392 68.8081 40.2383 68.8081 39.5999C68.8081 38.924 68.9207 38.3043 69.1461 37.7411C69.3714 37.1652 69.6843 36.677 70.0849 36.2765C70.4855 35.8634 70.9611 35.5442 71.5119 35.3189C72.0627 35.0936 72.6635 34.9809 73.3144 34.9809C73.9278 34.9809 74.4911 35.0873 75.0043 35.3001C75.5176 35.5004 75.9557 35.8008 76.3187 36.2014C76.6942 36.5894 76.9821 37.0714 77.1824 37.6472C77.3827 38.2105 77.4828 38.8551 77.4828 39.5811V40.0506H70.3853C70.4103 40.4261 70.498 40.7891 70.6482 41.1396C70.8109 41.4776 71.0174 41.778 71.2678 42.0409C71.5182 42.2912 71.8123 42.4915 72.1503 42.6417C72.4883 42.7919 72.8576 42.867 73.2581 42.867C73.8965 42.867 74.4348 42.7544 74.8729 42.5291C75.311 42.3037 75.7053 41.972 76.0558 41.5339L77.1636 42.3976ZM75.9056 38.8113C75.8806 38.0602 75.6365 37.4594 75.1733 37.0088C74.7102 36.5581 74.0718 36.3328 73.2581 36.3328C72.4445 36.3328 71.7873 36.5581 71.2866 37.0088C70.7859 37.4594 70.4855 38.0602 70.3853 38.8113H75.9056Z" fill="white"/>
<path d="M79.7485 37.2904C79.7485 36.8898 79.736 36.5143 79.7109 36.1638C79.6859 35.8133 79.6734 35.4941 79.6734 35.2062H81.0629C81.0629 35.444 81.0691 35.6819 81.0816 35.9197C81.0941 36.1576 81.1004 36.4017 81.1004 36.652H81.138C81.2381 36.4392 81.3758 36.2327 81.551 36.0324C81.7388 35.8321 81.9579 35.6568 82.2082 35.5066C82.4586 35.3439 82.7402 35.2187 83.0532 35.1311C83.3661 35.031 83.7041 34.9809 84.0671 34.9809C84.1672 34.9809 84.2674 34.9872 84.3675 34.9997C84.4677 35.0122 84.5678 35.0372 84.6679 35.0748L84.5741 36.5581C84.3237 36.483 84.0608 36.4455 83.7854 36.4455C82.8842 36.4455 82.227 36.7396 81.8139 37.328C81.4133 37.9038 81.2131 38.6987 81.2131 39.7126V43.9936H79.7485V37.2904Z" fill="white"/>
<path d="M94.7882 43.5993C94.7882 45.2016 94.3751 46.4158 93.549 47.242C92.7353 48.0807 91.5524 48.5 90.0002 48.5C89.1365 48.5 88.3541 48.3748 87.6531 48.1245C86.9646 47.8741 86.3075 47.4423 85.6816 46.8289L86.7331 45.6272C87.1962 46.1279 87.6844 46.5034 88.1976 46.7538C88.7234 47.0167 89.3242 47.1481 90.0002 47.1481C90.6511 47.1481 91.1894 47.048 91.615 46.8477C92.0531 46.6599 92.3973 46.397 92.6477 46.0591C92.898 45.7336 93.0733 45.3581 93.1734 44.9325C93.2736 44.5069 93.3236 44.0625 93.3236 43.5993V42.4727H93.2861C92.9356 43.036 92.4787 43.4491 91.9154 43.712C91.3521 43.9749 90.7763 44.1063 90.1879 44.1063C89.4995 44.1063 88.8673 43.9936 88.2915 43.7683C87.7157 43.543 87.2213 43.2301 86.8082 42.8295C86.3951 42.4289 86.0759 41.9532 85.8506 41.4025C85.6253 40.8517 85.5126 40.2508 85.5126 39.5999C85.5126 38.8864 85.6253 38.2418 85.8506 37.6659C86.0759 37.0901 86.3888 36.6082 86.7894 36.2201C87.2025 35.8196 87.6969 35.5129 88.2727 35.3001C88.8486 35.0873 89.487 34.9809 90.1879 34.9809C90.4884 34.9809 90.7888 35.0185 91.0892 35.0936C91.3896 35.1561 91.6776 35.2625 91.9529 35.4128C92.2409 35.5505 92.4975 35.732 92.7228 35.9573C92.9481 36.1701 93.1359 36.4204 93.2861 36.7083H93.3236V35.2062H94.7882V43.5993ZM87.0898 39.5999C87.0898 40.0506 87.1712 40.4699 87.3339 40.858C87.4966 41.2335 87.7157 41.5652 87.9911 41.8531C88.279 42.1285 88.6107 42.3476 88.9863 42.5103C89.3618 42.673 89.7623 42.7544 90.1879 42.7544C90.6887 42.7544 91.133 42.6668 91.5211 42.4915C91.9091 42.3163 92.2346 42.0847 92.4975 41.7968C92.7729 41.4964 92.9794 41.1584 93.1171 40.7829C93.2548 40.3948 93.3236 39.988 93.3236 39.5624C93.3236 39.0867 93.2485 38.6548 93.0983 38.2668C92.9481 37.8662 92.7353 37.522 92.4599 37.2341C92.1845 36.9462 91.8528 36.7271 91.4648 36.5769C91.0767 36.4142 90.6511 36.3328 90.1879 36.3328C89.7248 36.3328 89.2992 36.4204 88.9111 36.5957C88.5356 36.7584 88.2102 36.99 87.9348 37.2904C87.6719 37.5783 87.4654 37.9226 87.3151 38.3231C87.1649 38.7112 87.0898 39.1368 87.0898 39.5999Z" fill="white"/>
<path d="M100.728 46.0027C100.578 46.3783 100.421 46.7162 100.258 47.0167C100.108 47.3296 99.9204 47.5925 99.695 47.8053C99.4822 48.0306 99.2194 48.1996 98.9064 48.3122C98.606 48.4374 98.2367 48.5 97.7986 48.5C97.5858 48.5 97.3605 48.4875 97.1227 48.4624C96.8973 48.4374 96.6845 48.3748 96.4843 48.2747L96.672 46.9979C96.8222 47.0605 96.9787 47.098 97.1414 47.1105C97.3042 47.1356 97.4919 47.1481 97.7047 47.1481C98.1804 47.1481 98.5309 47.0167 98.7562 46.7538C98.9815 46.4909 99.1756 46.1404 99.3383 45.7023L99.9391 44.05L96.2965 35.2062H98.0051L100.728 42.0972H100.765L103.375 35.2062H104.971L100.728 46.0027Z" fill="white"/>
<path fill-rule="evenodd" clip-rule="evenodd" d="M5.2157 30.3454V9.19284H0V30.3454C0 39.7872 7.6541 47.4413 17.0959 47.4413C26.5377 47.4413 34.1918 39.7872 34.1918 30.3454V9.19284H28.9761V30.3454C28.9761 36.9067 23.6572 42.2256 17.0959 42.2256C10.5347 42.2256 5.2157 36.9067 5.2157 30.3454Z" fill="white"/>
<path d="M17.405 17.5326C18.8453 17.5326 20.0129 16.365 20.0129 14.9247V0.5H14.7971V14.9247C14.7971 16.365 15.9647 17.5326 17.405 17.5326Z" fill="#5C9F27"/>
</svg>
