<svg width="302" height="303" viewBox="0 0 302 303" fill="none" xmlns="http://www.w3.org/2000/svg">
<g filter="url(#filter0_i_2786_162)">
<rect x="1" y="1.37256" width="300" height="300" rx="150" fill="#5C9F27"/>
<rect x="0.5" y="0.872559" width="301" height="301" rx="150.5" stroke="#5C9F27" stroke-opacity="0.25"/>
<path fill-rule="evenodd" clip-rule="evenodd" d="M112.614 74.0148C110.244 74.0148 108.299 75.953 108.299 78.3737C108.299 80.7943 110.244 82.7325 112.614 82.7325C114.984 82.7325 116.93 80.7943 116.93 78.3737C116.93 75.953 114.984 74.0148 112.614 74.0148ZM104.134 78.3737C104.134 73.6797 107.918 69.8503 112.614 69.8503C117.311 69.8503 121.094 73.6797 121.094 78.3737C121.094 82.3491 118.38 85.7044 114.697 86.6384V91.8574H121.678C122.828 91.8574 123.76 92.7896 123.76 93.9396V103.129H136.812V86.6384C133.128 85.7044 130.414 82.3491 130.414 78.3737C130.414 73.6797 134.197 69.8503 138.894 69.8503C143.59 69.8503 147.374 73.6797 147.374 78.3737C147.374 82.3491 144.66 85.7044 140.976 86.6384V103.129H161.024V86.6384C157.34 85.7044 154.626 82.3491 154.626 78.3737C154.626 73.6797 158.41 69.8503 163.106 69.8503C167.803 69.8503 171.586 73.6797 171.586 78.3737C171.586 82.3491 168.872 85.7044 165.188 86.6384V103.129H178.24V93.9396C178.24 92.7896 179.172 91.8574 180.322 91.8574H188.37V86.6384C184.686 85.7044 181.972 82.3491 181.972 78.3737C181.972 73.6797 185.755 69.8503 190.452 69.8503C195.149 69.8503 198.932 73.6797 198.932 78.3737C198.932 82.3491 196.218 85.7044 192.534 86.6384V93.9396C192.534 95.0896 191.602 96.0218 190.452 96.0218H182.405V103.129H191.297C195.514 103.129 198.932 106.548 198.932 110.764V126.21H224.573C225.723 126.21 226.655 127.142 226.655 128.292C226.655 129.442 225.723 130.374 224.573 130.374H198.932V149.29H224.573C225.723 149.29 226.655 150.223 226.655 151.373C226.655 152.523 225.723 153.455 224.573 153.455H198.932V172.371H224.573C225.723 172.371 226.655 173.303 226.655 174.453C226.655 175.603 225.723 176.535 224.573 176.535H198.932V191.981C198.932 196.198 195.514 199.616 191.297 199.616H182.405V206.723H190.452C191.602 206.723 192.534 207.656 192.534 208.805V216.107C196.218 217.041 198.932 220.396 198.932 224.371C198.932 229.065 195.149 232.895 190.452 232.895C185.755 232.895 181.972 229.065 181.972 224.371C181.972 220.396 184.686 217.041 188.37 216.107V210.888H180.322C179.172 210.888 178.24 209.955 178.24 208.805V199.616H165.188V216.107C168.872 217.041 171.586 220.396 171.586 224.371C171.586 229.065 167.803 232.895 163.106 232.895C158.41 232.895 154.626 229.065 154.626 224.371C154.626 220.396 157.34 217.041 161.024 216.107V199.616H140.976V216.107C144.66 217.041 147.374 220.396 147.374 224.371C147.374 229.065 143.59 232.895 138.894 232.895C134.197 232.895 130.414 229.065 130.414 224.371C130.414 220.396 133.128 217.041 136.812 216.107V199.616H123.76V208.805C123.76 209.955 122.828 210.888 121.678 210.888H114.697V216.107C118.38 217.041 121.094 220.396 121.094 224.371C121.094 229.065 117.311 232.895 112.614 232.895C107.918 232.895 104.134 229.065 104.134 224.371C104.134 220.396 106.848 217.041 110.532 216.107V208.805C110.532 207.656 111.464 206.723 112.614 206.723H119.595V199.616H110.703C106.486 199.616 103.068 196.198 103.068 191.981V176.535H77.4273C76.2773 176.535 75.3451 175.603 75.3451 174.453C75.3451 173.303 76.2773 172.371 77.4273 172.371H103.068V153.455H77.4273C76.2773 153.455 75.3451 152.523 75.3451 151.373C75.3451 150.223 76.2773 149.29 77.4273 149.29H103.068V130.374H77.4273C76.2773 130.374 75.3451 129.442 75.3451 128.292C75.3451 127.142 76.2773 126.21 77.4273 126.21H103.068V110.764C103.068 106.548 106.486 103.129 110.703 103.129H119.595V96.0218H112.614C111.464 96.0218 110.532 95.0896 110.532 93.9396V86.6384C106.848 85.7044 104.134 82.3491 104.134 78.3737ZM138.894 74.0148C136.524 74.0148 134.578 75.953 134.578 78.3737C134.578 80.7943 136.524 82.7325 138.894 82.7325C141.264 82.7325 143.209 80.7943 143.209 78.3737C143.209 75.953 141.264 74.0148 138.894 74.0148ZM163.106 74.0148C160.736 74.0148 158.791 75.953 158.791 78.3737C158.791 80.7943 160.736 82.7325 163.106 82.7325C165.476 82.7325 167.422 80.7943 167.422 78.3737C167.422 75.953 165.476 74.0148 163.106 74.0148ZM190.452 74.0148C188.082 74.0148 186.137 75.953 186.137 78.3737C186.137 80.7943 188.082 82.7325 190.452 82.7325C192.822 82.7325 194.767 80.7943 194.767 78.3737C194.767 75.953 192.822 74.0148 190.452 74.0148ZM110.703 107.294C108.786 107.294 107.233 108.847 107.233 110.764V191.981C107.233 193.898 108.786 195.451 110.703 195.451H191.297C193.214 195.451 194.767 193.898 194.767 191.981V110.764C194.767 108.847 193.214 107.294 191.297 107.294H110.703ZM117.573 121.499C117.573 118.816 119.749 116.641 122.432 116.641H179.568C182.251 116.641 184.427 118.816 184.427 121.499V181.246C184.427 183.929 182.251 186.104 179.568 186.104H122.432C119.749 186.104 117.573 183.929 117.573 181.246V121.499ZM122.432 120.805C122.049 120.805 121.738 121.116 121.738 121.499V181.246C121.738 181.629 122.049 181.94 122.432 181.94H179.568C179.951 181.94 180.262 181.629 180.262 181.246V121.499C180.262 121.116 179.951 120.805 179.568 120.805H122.432ZM133.567 139.564C133.567 138.414 134.5 137.482 135.65 137.482H166.35C167.5 137.482 168.433 138.414 168.433 139.564C168.433 140.714 167.5 141.646 166.35 141.646H135.65C134.5 141.646 133.567 140.714 133.567 139.564ZM133.567 162.108C133.567 160.958 134.5 160.025 135.65 160.025H166.35C167.5 160.025 168.433 160.958 168.433 162.108C168.433 163.258 167.5 164.19 166.35 164.19H135.65C134.5 164.19 133.567 163.258 133.567 162.108ZM112.614 220.013C110.244 220.013 108.299 221.951 108.299 224.371C108.299 226.792 110.244 228.73 112.614 228.73C114.984 228.73 116.93 226.792 116.93 224.371C116.93 221.951 114.984 220.013 112.614 220.013ZM138.894 220.013C136.524 220.013 134.578 221.951 134.578 224.371C134.578 226.792 136.524 228.73 138.894 228.73C141.264 228.73 143.209 226.792 143.209 224.371C143.209 221.951 141.264 220.013 138.894 220.013ZM163.106 220.013C160.736 220.013 158.791 221.951 158.791 224.371C158.791 226.792 160.736 228.73 163.106 228.73C165.476 228.73 167.422 226.792 167.422 224.371C167.422 221.951 165.476 220.013 163.106 220.013ZM190.452 220.013C188.082 220.013 186.137 221.951 186.137 224.371C186.137 226.792 188.082 228.73 190.452 228.73C192.822 228.73 194.767 226.792 194.767 224.371C194.767 221.951 192.822 220.013 190.452 220.013Z" fill="white"/>
</g>
<defs>
<filter id="filter0_i_2786_162" x="0" y="0.372559" width="302" height="307" filterUnits="userSpaceOnUse" color-interpolation-filters="sRGB">
<feFlood flood-opacity="0" result="BackgroundImageFix"/>
<feBlend mode="normal" in="SourceGraphic" in2="BackgroundImageFix" result="shape"/>
<feColorMatrix in="SourceAlpha" type="matrix" values="0 0 0 0 0 0 0 0 0 0 0 0 0 0 0 0 0 0 127 0" result="hardAlpha"/>
<feOffset dy="5"/>
<feGaussianBlur stdDeviation="25"/>
<feComposite in2="hardAlpha" operator="arithmetic" k2="-1" k3="1"/>
<feColorMatrix type="matrix" values="0 0 0 0 0 0 0 0 0 0 0 0 0 0 0 0 0 0 0.1 0"/>
<feBlend mode="normal" in2="shape" result="effect1_innerShadow_2786_162"/>
</filter>
</defs>
</svg>
