<svg width="321" height="381" viewBox="0 0 321 381" fill="none" xmlns="http://www.w3.org/2000/svg">
<path d="M0.319016 189.981C-0.071508 190.372 -0.071508 191.005 0.319016 191.395L6.68298 197.759C7.0735 198.15 7.70667 198.15 8.09719 197.759C8.48772 197.369 8.48772 196.736 8.09719 196.345L2.44034 190.688L8.09719 185.032C8.48772 184.641 8.48772 184.008 8.09719 183.617C7.70667 183.227 7.0735 183.227 6.68298 183.617L0.319016 189.981ZM320.534 191.395C320.925 191.005 320.925 190.372 320.534 189.981L314.17 183.617C313.78 183.227 313.147 183.227 312.756 183.617C312.365 184.008 312.365 184.641 312.756 185.032L318.413 190.688L312.756 196.345C312.365 196.736 312.365 197.369 312.756 197.759C313.147 198.15 313.78 198.15 314.17 197.759L320.534 191.395ZM61.4254 279.788V190.688H59.4254V279.788H61.4254ZM61.4254 190.688V101.588H59.4254V190.688H61.4254ZM60.4254 189.688H1.02612V191.688H60.4254V189.688ZM259.425 101.588V190.688H261.425V101.588H259.425ZM259.425 190.688V279.788H261.425V190.688H259.425ZM260.425 191.688H319.827V189.688H260.425V191.688ZM160.425 378.788C105.749 378.788 61.4254 334.465 61.4254 279.788H59.4254C59.4254 335.569 104.645 380.788 160.425 380.788V378.788ZM160.425 380.788C216.206 380.788 261.425 335.569 261.425 279.788H259.425C259.425 334.465 215.102 378.788 160.425 378.788V380.788ZM160.425 2.58838C215.102 2.58838 259.425 46.9122 259.425 101.588H261.425C261.425 45.8076 216.206 0.588379 160.425 0.588379V2.58838ZM160.425 0.588379C104.645 0.588379 59.4254 45.8076 59.4254 101.588H61.4254C61.4254 46.9121 105.749 2.58838 160.425 2.58838V0.588379Z" fill="white" fill-opacity="0.5"/>
</svg>
