<svg width="125" height="48" viewBox="0 0 125 48" fill="none" xmlns="http://www.w3.org/2000/svg">
<path d="M61.4357 18.5659C61.4357 19.5122 61.293 20.3835 61.0076 21.1796C60.7222 21.9757 60.2941 22.6667 59.7233 23.2525C59.1675 23.8384 58.469 24.2965 57.6278 24.627C56.7866 24.9574 55.8178 25.1227 54.7212 25.1227C53.6096 25.1227 52.6333 24.9574 51.7921 24.627C50.9509 24.2965 50.2449 23.8384 49.6741 23.2525C49.1183 22.6667 48.6977 21.9757 48.4123 21.1796C48.1269 20.3835 47.9842 19.5122 47.9842 18.5659V8.76456H51.4992V18.4307C51.4992 18.9264 51.5743 19.3846 51.7245 19.8052C51.8897 20.2258 52.115 20.5938 52.4004 20.9092C52.6858 21.2096 53.0238 21.45 53.4144 21.6302C53.8199 21.7955 54.2556 21.8781 54.7212 21.8781C55.1869 21.8781 55.615 21.7955 56.0055 21.6302C56.3961 21.45 56.7341 21.2096 57.0195 20.9092C57.3049 20.5938 57.5227 20.2258 57.6729 19.8052C57.8381 19.3846 57.9207 18.9264 57.9207 18.4307V8.76456H61.4357V18.5659Z" fill="white"/>
<path d="M64.5724 7.78687H67.9522V14.9383H67.9972C68.3878 14.4125 68.8835 14.0445 69.4843 13.8342C70.1002 13.6089 70.7611 13.4962 71.4671 13.4962C72.2482 13.4962 72.9467 13.6615 73.5626 13.9919C74.1785 14.3074 74.6967 14.7355 75.1173 15.2763C75.5529 15.817 75.8834 16.4404 76.1087 17.1464C76.349 17.8374 76.4692 18.5659 76.4692 19.332C76.4692 20.1582 76.3415 20.9167 76.0862 21.6077C75.8308 22.2987 75.4628 22.8995 74.9821 23.4103C74.5164 23.906 73.9531 24.2965 73.2922 24.5819C72.6313 24.8523 71.8952 24.9875 71.0841 24.9875C70.6935 24.9875 70.3255 24.9349 69.98 24.8298C69.6345 24.7246 69.3116 24.5894 69.0112 24.4242C68.7258 24.259 68.4704 24.0787 68.2451 23.8834C68.0348 23.6731 67.862 23.4703 67.7269 23.2751H67.6818V24.7171H64.5724V7.78687ZM67.6818 19.2419C67.6818 20.068 67.9146 20.7365 68.3803 21.2472C68.861 21.7579 69.5294 22.0133 70.3856 22.0133C71.2418 22.0133 71.9027 21.7579 72.3684 21.2472C72.8491 20.7365 73.0894 20.068 73.0894 19.2419C73.0894 18.4157 72.8491 17.7472 72.3684 17.2365C71.9027 16.7258 71.2418 16.4704 70.3856 16.4704C69.5294 16.4704 68.861 16.7258 68.3803 17.2365C67.9146 17.7472 67.6818 18.4157 67.6818 19.2419Z" fill="white"/>
<path d="M88.9943 24.7171H85.7497V23.23H85.7046C85.5844 23.4403 85.4267 23.6506 85.2314 23.8609C85.0512 24.0712 84.8259 24.259 84.5555 24.4242C84.2851 24.5894 83.9772 24.7246 83.6317 24.8298C83.2862 24.9349 82.9107 24.9875 82.5051 24.9875C81.6489 24.9875 80.9504 24.8598 80.4096 24.6044C79.8839 24.3341 79.4708 23.966 79.1704 23.5004C78.885 23.0347 78.6897 22.4864 78.5845 21.8556C78.4944 21.2247 78.4494 20.5412 78.4494 19.8052V13.7666H81.8291V19.1292C81.8291 19.4447 81.8366 19.7751 81.8517 20.1206C81.8817 20.4511 81.9493 20.759 82.0545 21.0444C82.1746 21.3298 82.3474 21.5626 82.5727 21.7429C82.813 21.9232 83.151 22.0133 83.5866 22.0133C84.0222 22.0133 84.3752 21.9382 84.6456 21.788C84.916 21.6227 85.1188 21.4124 85.254 21.1571C85.4042 20.8867 85.5018 20.5863 85.5469 20.2558C85.592 19.9253 85.6145 19.5798 85.6145 19.2193V13.7666H88.9943V24.7171Z" fill="white"/>
<path d="M91.3876 13.7666H94.6321V15.2537H94.6772C94.7824 15.0434 94.9326 14.8331 95.1278 14.6228C95.3231 14.4125 95.5559 14.2248 95.8263 14.0595C96.0967 13.8943 96.4047 13.7591 96.7501 13.654C97.0956 13.5488 97.4712 13.4962 97.8767 13.4962C98.7329 13.4962 99.4239 13.6314 99.9497 13.9018C100.475 14.1572 100.881 14.5177 101.166 14.9833C101.467 15.449 101.67 15.9973 101.775 16.6282C101.88 17.2591 101.932 17.9425 101.932 18.6786V24.7171H98.5527V19.3545C98.5527 19.0391 98.5377 18.7161 98.5076 18.3857C98.4926 18.0402 98.425 17.7247 98.3048 17.4393C98.1997 17.1539 98.0269 16.9211 97.7866 16.7408C97.5613 16.5606 97.2308 16.4704 96.7952 16.4704C96.3596 16.4704 96.0066 16.5531 95.7362 16.7183C95.4658 16.8685 95.2555 17.0788 95.1053 17.3492C94.9701 17.6046 94.88 17.8975 94.8349 18.2279C94.7899 18.5584 94.7673 18.9039 94.7673 19.2644V24.7171H91.3876V13.7666Z" fill="white"/>
<path d="M111.784 16.4704H108.81V20.1206C108.81 20.421 108.825 20.6989 108.855 20.9543C108.885 21.1946 108.952 21.4049 109.057 21.5852C109.163 21.7654 109.32 21.9081 109.531 22.0133C109.756 22.1034 110.049 22.1485 110.409 22.1485C110.59 22.1485 110.822 22.1334 111.108 22.1034C111.408 22.0583 111.634 21.9682 111.784 21.833V24.6495C111.408 24.7847 111.018 24.8748 110.612 24.9199C110.207 24.9649 109.809 24.9875 109.418 24.9875C108.847 24.9875 108.321 24.9274 107.841 24.8072C107.36 24.6871 106.939 24.4993 106.579 24.2439C106.218 23.9736 105.933 23.6281 105.723 23.2075C105.527 22.7869 105.43 22.2762 105.43 21.6753V16.4704H103.267V13.7666H105.43V9.77948H108.81V13.7666H111.784V16.4704Z" fill="white"/>
<path d="M124.046 24.7171H120.802V23.23H120.757C120.636 23.4403 120.479 23.6506 120.283 23.8609C120.103 24.0712 119.878 24.259 119.607 24.4242C119.337 24.5894 119.029 24.7246 118.684 24.8298C118.338 24.9349 117.963 24.9875 117.557 24.9875C116.701 24.9875 116.002 24.8598 115.462 24.6044C114.936 24.3341 114.523 23.966 114.222 23.5004C113.937 23.0347 113.742 22.4864 113.637 21.8556C113.546 21.2247 113.501 20.5412 113.501 19.8052V13.7666H116.881V19.1292C116.881 19.4447 116.889 19.7751 116.904 20.1206C116.934 20.4511 117.001 20.759 117.106 21.0444C117.227 21.3298 117.399 21.5626 117.625 21.7429C117.865 21.9232 118.203 22.0133 118.639 22.0133C119.074 22.0133 119.427 21.9382 119.698 21.788C119.968 21.6227 120.171 21.4124 120.306 21.1571C120.456 20.8867 120.554 20.5863 120.599 20.2558C120.644 19.9253 120.666 19.5798 120.666 19.2193V13.7666H124.046V24.7171Z" fill="white"/>
<path d="M48.0142 30.1998H56.3698V31.6644H49.5915V35.8328H55.9192V37.2974H49.5915V42.0291H56.7078V43.4936H48.0142V30.1998Z" fill="white"/>
<path d="M58.8816 36.7904C58.8816 36.3898 58.8691 36.0143 58.844 35.6638C58.819 35.3133 58.8065 34.9941 58.8065 34.7062H60.196C60.196 34.944 60.2022 35.1819 60.2147 35.4197C60.2272 35.6576 60.2335 35.9017 60.2335 36.152H60.2711C60.3712 35.9392 60.5089 35.7327 60.6842 35.5324C60.8719 35.3321 61.091 35.1568 61.3413 35.0066C61.5917 34.8439 61.8733 34.7187 62.1863 34.6311C62.4992 34.531 62.8372 34.4809 63.2002 34.4809C63.776 34.4809 64.2705 34.5685 64.6836 34.7438C65.1092 34.919 65.4596 35.1631 65.735 35.4761C66.0104 35.789 66.2107 36.1708 66.3359 36.6214C66.4736 37.0595 66.5424 37.5415 66.5424 38.0672V43.4936H65.0779V38.2174C65.0779 37.4789 64.9151 36.8968 64.5897 36.4712C64.2642 36.0456 63.7572 35.8328 63.0688 35.8328C62.5931 35.8328 62.18 35.9142 61.8295 36.0769C61.4915 36.2396 61.2099 36.4712 60.9846 36.7716C60.7718 37.0721 60.609 37.4288 60.4964 37.8419C60.3962 38.255 60.3462 38.7119 60.3462 39.2126V43.4936H58.8816V36.7904Z" fill="white"/>
<path d="M77.1636 41.8976C76.6379 42.5736 76.0621 43.0493 75.4362 43.3246C74.8103 43.5875 74.0843 43.719 73.2581 43.719C72.5696 43.719 71.95 43.6 71.3992 43.3622C70.8484 43.1118 70.3791 42.7801 69.991 42.367C69.6155 41.954 69.3213 41.4658 69.1085 40.9025C68.9082 40.3392 68.8081 39.7383 68.8081 39.0999C68.8081 38.424 68.9207 37.8043 69.1461 37.2411C69.3714 36.6652 69.6843 36.177 70.0849 35.7765C70.4855 35.3634 70.9611 35.0442 71.5119 34.8189C72.0627 34.5936 72.6635 34.4809 73.3144 34.4809C73.9278 34.4809 74.4911 34.5873 75.0043 34.8001C75.5176 35.0004 75.9557 35.3008 76.3187 35.7014C76.6942 36.0894 76.9821 36.5714 77.1824 37.1472C77.3827 37.7105 77.4828 38.3551 77.4828 39.0811V39.5506H70.3853C70.4103 39.9261 70.498 40.2891 70.6482 40.6396C70.8109 40.9776 71.0174 41.278 71.2678 41.5409C71.5182 41.7912 71.8123 41.9915 72.1503 42.1417C72.4883 42.2919 72.8576 42.367 73.2581 42.367C73.8965 42.367 74.4348 42.2544 74.8729 42.0291C75.311 41.8037 75.7053 41.472 76.0558 41.0339L77.1636 41.8976ZM75.9056 38.3113C75.8806 37.5602 75.6365 36.9594 75.1733 36.5088C74.7102 36.0581 74.0718 35.8328 73.2581 35.8328C72.4445 35.8328 71.7873 36.0581 71.2866 36.5088C70.7859 36.9594 70.4855 37.5602 70.3853 38.3113H75.9056Z" fill="white"/>
<path d="M79.7485 36.7904C79.7485 36.3898 79.736 36.0143 79.7109 35.6638C79.6859 35.3133 79.6734 34.9941 79.6734 34.7062H81.0629C81.0629 34.944 81.0691 35.1819 81.0816 35.4197C81.0941 35.6576 81.1004 35.9017 81.1004 36.152H81.138C81.2381 35.9392 81.3758 35.7327 81.551 35.5324C81.7388 35.3321 81.9579 35.1568 82.2082 35.0066C82.4586 34.8439 82.7402 34.7187 83.0532 34.6311C83.3661 34.531 83.7041 34.4809 84.0671 34.4809C84.1672 34.4809 84.2674 34.4872 84.3675 34.4997C84.4677 34.5122 84.5678 34.5372 84.6679 34.5748L84.5741 36.0581C84.3237 35.983 84.0608 35.9455 83.7854 35.9455C82.8842 35.9455 82.227 36.2396 81.8139 36.828C81.4133 37.4038 81.2131 38.1987 81.2131 39.2126V43.4936H79.7485V36.7904Z" fill="white"/>
<path d="M94.7882 43.0993C94.7882 44.7016 94.3751 45.9158 93.549 46.742C92.7353 47.5807 91.5524 48 90.0002 48C89.1365 48 88.3541 47.8748 87.6531 47.6245C86.9646 47.3741 86.3075 46.9423 85.6816 46.3289L86.7331 45.1272C87.1962 45.6279 87.6844 46.0034 88.1976 46.2538C88.7234 46.5167 89.3242 46.6481 90.0002 46.6481C90.6511 46.6481 91.1894 46.548 91.615 46.3477C92.0531 46.1599 92.3973 45.897 92.6477 45.5591C92.898 45.2336 93.0733 44.8581 93.1734 44.4325C93.2736 44.0069 93.3236 43.5625 93.3236 43.0993V41.9727H93.2861C92.9356 42.536 92.4787 42.9491 91.9154 43.212C91.3521 43.4749 90.7763 43.6063 90.1879 43.6063C89.4995 43.6063 88.8673 43.4936 88.2915 43.2683C87.7157 43.043 87.2213 42.7301 86.8082 42.3295C86.3951 41.9289 86.0759 41.4532 85.8506 40.9025C85.6253 40.3517 85.5126 39.7508 85.5126 39.0999C85.5126 38.3864 85.6253 37.7418 85.8506 37.1659C86.0759 36.5901 86.3888 36.1082 86.7894 35.7201C87.2025 35.3196 87.6969 35.0129 88.2727 34.8001C88.8486 34.5873 89.487 34.4809 90.1879 34.4809C90.4884 34.4809 90.7888 34.5185 91.0892 34.5936C91.3896 34.6561 91.6776 34.7625 91.9529 34.9128C92.2409 35.0505 92.4975 35.232 92.7228 35.4573C92.9481 35.6701 93.1359 35.9204 93.2861 36.2083H93.3236V34.7062H94.7882V43.0993ZM87.0898 39.0999C87.0898 39.5506 87.1712 39.9699 87.3339 40.358C87.4966 40.7335 87.7157 41.0652 87.9911 41.3531C88.279 41.6285 88.6107 41.8476 88.9863 42.0103C89.3618 42.173 89.7623 42.2544 90.1879 42.2544C90.6887 42.2544 91.133 42.1668 91.5211 41.9915C91.9091 41.8163 92.2346 41.5847 92.4975 41.2968C92.7729 40.9964 92.9794 40.6584 93.1171 40.2829C93.2548 39.8948 93.3236 39.488 93.3236 39.0624C93.3236 38.5867 93.2485 38.1548 93.0983 37.7668C92.9481 37.3662 92.7353 37.022 92.4599 36.7341C92.1845 36.4462 91.8528 36.2271 91.4648 36.0769C91.0767 35.9142 90.6511 35.8328 90.1879 35.8328C89.7248 35.8328 89.2992 35.9204 88.9111 36.0957C88.5356 36.2584 88.2102 36.49 87.9348 36.7904C87.6719 37.0783 87.4654 37.4226 87.3151 37.8231C87.1649 38.2112 87.0898 38.6368 87.0898 39.0999Z" fill="white"/>
<path d="M100.728 45.5027C100.578 45.8783 100.421 46.2162 100.258 46.5167C100.108 46.8296 99.9204 47.0925 99.695 47.3053C99.4822 47.5306 99.2194 47.6996 98.9064 47.8122C98.606 47.9374 98.2367 48 97.7986 48C97.5858 48 97.3605 47.9875 97.1227 47.9624C96.8973 47.9374 96.6845 47.8748 96.4843 47.7747L96.672 46.4979C96.8222 46.5605 96.9787 46.598 97.1414 46.6105C97.3042 46.6356 97.4919 46.6481 97.7047 46.6481C98.1804 46.6481 98.5309 46.5167 98.7562 46.2538C98.9815 45.9909 99.1756 45.6404 99.3383 45.2023L99.9391 43.55L96.2965 34.7062H98.0051L100.728 41.5972H100.765L103.375 34.7062H104.971L100.728 45.5027Z" fill="white"/>
<path d="M17.0959 41.7256C10.5347 41.7256 5.2157 36.4067 5.2157 29.8454V8.69284H0V29.8454C0 39.2872 7.6541 46.9413 17.0959 46.9413C26.5377 46.9413 34.1918 39.2872 34.1918 29.8454V8.69284H28.9761V29.8454C28.9761 36.4067 23.6572 41.7256 17.0959 41.7256Z" fill="white"/>
<path d="M17.405 17.0326C18.8453 17.0326 20.0129 15.865 20.0129 14.4247V0H14.7971V14.4247C14.7971 15.865 15.9647 17.0326 17.405 17.0326Z" fill="white"/>
</svg>
